<?xml version="1.0" encoding="UTF-8" standalone="no"?>
<!-- Created with Inkscape (http://www.inkscape.org/) -->

<svg
   version="1.1"
   id="svg6652"
   width="3000"
   height="2700"
   viewBox="0 0 3000 2700.0001"
   sodipodi:docname="happy new year.svg"
   inkscape:version="1.2.2 (b0a8486, 2022-12-01)"
   xmlns:inkscape="http://www.inkscape.org/namespaces/inkscape"
   xmlns:sodipodi="http://sodipodi.sourceforge.net/DTD/sodipodi-0.dtd"
   xmlns="http://www.w3.org/2000/svg"
   xmlns:svg="http://www.w3.org/2000/svg">
  <defs
     id="defs6656">
    <clipPath
       clipPathUnits="userSpaceOnUse"
       id="clipPath6856">
      <path
         id="path6858"
         style="fill:#ff0000;fill-opacity:1;fill-rule:nonzero;stroke:none"
         d="M 392.69531,239.42578 V 1006.1562 H 1087.4922 V 239.42578 Z M 704.16016,397.7168 c 2.81668,-0.0267 4.73883,0.285 7.20117,2.56054 1.6796,1.70193 2.90844,3.72158 3.51367,6.04493 0.17083,0.67484 0.31973,1.35415 0.46094,2.03515 0.0668,-2.5e-4 0.13439,4.2e-4 0.20117,0 2.36932,-0.0167 4.73703,-0.0333 7.10547,-0.0234 2.36843,0.01 4.73748,0.0463 7.10547,0.13477 5.45783,0.42112 10.9257,0.63969 16.39648,0.80273 5.11779,0.14469 10.23602,0.23095 15.35547,0.28125 4.14167,0.0351 8.28402,0.0476 12.42578,0.0566 3.29951,0.006 6.59892,0.007 9.89844,0.008 3.25228,7.3e-4 6.50358,0.002 9.75586,0.002 4.63892,1.7e-4 9.27902,-2e-5 13.91797,0 7.36455,2e-5 14.72916,-1e-5 22.09375,0 h 17.50781 12.64258 10.70117 12.19726 11.49219 12.84375 10.83594 12.98438 23.1875 28.87109 24.02733 16.6973 13.2519 7.9121 5.8809 3.9668 1.4004 c 12.4739,0 16.5588,8.41216 12.3476,13.99414 9.5659,8.42423 2.9417,22.97065 -16.6836,20.4082 -0.113,-0.0148 -0.2283,-0.0148 -0.3417,-0.0293 0.4266,0.38398 0.7884,0.87692 1.0507,1.52539 0.1633,0.54218 0.2625,1.0962 0.377,1.64648 0.058,-0.005 0.1149,-0.009 0.1719,-0.01 2.0002,-0.0311 3.6334,2.21857 2.3105,5.80078 -0.1123,0.30403 -0.2322,0.60684 -0.3613,0.9043 2.3477,0.0417 4.6961,0.0716 7.0429,0.13281 0.3353,-0.0903 0.6774,-0.1906 0.7911,0.0176 0.2767,0.008 0.5533,0.0113 0.83,0.0195 -0.1413,1.76298 0.01,3.58192 -0.2617,5.32031 0.018,0.39244 0.034,0.78497 0.07,1.17383 -0.1074,-0.003 -0.2148,-0.005 -0.3222,-0.008 0,0.0103 8e-4,0.0209 -0.01,0.0313 -0.1396,0.4627 -0.9659,0.0185 -1.4492,0.0215 -1.1161,0.008 -2.2335,0.01 -3.3496,0.0137 -3.3502,0.0104 -6.7005,0.011 -10.0508,0.0137 -0.511,0.11604 -0.9857,0.11021 -1.4063,0.002 -1.485,0.001 -2.97,0.004 -4.455,0.006 -13.1079,0.01 -26.2154,-0.0327 -39.3223,0.12695 -4.55591,0.39653 -9.11927,0.70891 -13.6875,0.75781 -0.93808,0.01 -2.19577,0.59949 -2.8125,-0.10742 -0.0892,-0.10222 -0.16254,-0.21521 -0.24414,-0.32227 -0.26,0.0253 -0.51855,0.089 -0.77929,0.0781 -0.20761,-0.009 0.41027,-0.0674 0.61523,-0.10156 0.008,-0.0586 0.005,-0.12074 0.0117,-0.17969 -0.47472,-0.67569 -0.82469,-1.43043 -1.12305,-2.21875 -4.69407,-0.1863 -9.38807,-0.39142 -14.08008,-0.63281 -3.17231,-0.21642 -6.34776,-0.39806 -9.51757,-0.64844 -1.82395,-0.14408 -10.58097,-0.63268 -13.33594,-1.83203 -1.12705,-0.49066 -2.6952,-1.10486 -2.86524,-2.32227 -0.0143,-0.10225 0.0568,-0.20222 0.0508,-0.30469 -0.28443,-0.0347 -0.56906,-0.0669 -0.85351,-0.10156 -1.74647,-0.21904 -3.49819,-0.3835 -5.25195,-0.53125 -1.86526,2.81481 -5.73127,5.06654 -11.78125,5.44922 -3.46804,0.21937 -6.90013,0.79024 -10.33985,1.26953 -2.54725,0.34292 -5.09462,0.69489 -7.64844,0.98633 -0.95481,0.11441 -1.9116,0.19697 -2.87109,0.25977 -0.5793,0.0339 -1.16006,0.0506 -1.74023,0.0586 -0.45943,0.006 -0.91945,0.005 -1.37891,0.006 -0.98049,7.6e-4 -1.96092,0.002 -2.94141,0.002 -2.35457,1.3e-4 -4.70789,-1e-5 -7.0625,0 -2.90975,10e-6 -5.82071,0 -8.73046,0 -1.69094,10e-6 -3.38133,0 -5.07227,0 -1.00642,0.21423 -2.66032,0.3155 -3.87891,0.4043 -2.36013,0.15253 -4.72572,0.17507 -7.08984,0.20117 -3.96226,0.0301 -7.92436,0.0321 -11.88672,0.0371 -4.54631,0.004 -9.09236,0.005 -13.63867,0.006 -5.49725,8.1e-4 -10.99494,-1.1e-4 -16.49219,0 -5.57234,0.013 -11.13388,0.32583 -16.68164,0.82617 -3.79453,0.28276 -7.5691,0.75772 -11.35547,1.125 -3.32281,0.31095 -6.65934,0.43269 -9.99414,0.52149 -2.9244,0.0702 -5.84835,0.0887 -8.77344,0.10546 -2.02084,0.0105 -4.04159,0.0146 -6.0625,0.0176 -2.3083,0.0927 -4.59326,-0.17847 -6.85937,-0.58984 -1.93043,-0.33432 -3.88851,-0.46959 -5.83398,-0.69336 -3.71875,-0.43294 -7.39397,-1.15896 -11.08204,-1.79102 -4.16029,-0.78917 -8.36419,-1.23846 -12.58203,-1.5664 -4.51582,-0.26887 -9.03929,-0.35639 -13.55664,-0.59571 -3.49822,-0.19837 -6.99811,-0.34764 -10.5,-0.46289 -2.09675,0.005 -4.17821,-0.22632 -6.2539,-0.49609 -1.32664,-0.19074 -2.61518,-0.56329 -3.93165,-0.80469 -0.38842,-0.0636 -0.78146,-0.0788 -1.17382,-0.0957 -1.36156,-0.0997 -2.69889,-0.37097 -4.05078,-0.54688 -1.05136,-0.14551 -2.04838,-0.4976 -3.0918,-0.66992 -1.34812,-0.18643 -2.41147,-0.44967 -3.80664,-1.04492 -0.62367,-0.26609 -1.15228,-0.71494 -1.72852,-1.07226 -3.28037,-2.74272 -3.93473,-5.04801 -3.92773,-9.31055 8.5e-4,-0.52737 0.21377,-1.03233 0.32031,-1.54883 -0.22405,-0.25973 0.68337,-1.45515 0.63867,-1.82031 -0.0235,-0.19188 -0.20386,0.69948 -0.082,0.1289 0.0622,-0.78375 0.38956,-1.87583 0.52734,-2.75976 0.27164,-1.50823 0.5403,-3.01721 0.75196,-4.53516 0.11252,-1.68037 0.48392,-3.32177 0.9043,-4.94726 0.21791,-1.58535 0.65742,-3.12863 1.13476,-4.65235 0.17198,-0.89462 0.63348,-2.25203 1.10352,-3.32617 0.40516,-1.04431 1.13845,-2.13166 1.83398,-3.07812 0.37339,-0.49899 0.77838,-0.97194 1.1875,-1.44141 -0.71617,-2.66701 -0.63118,-6.02967 0.71289,-9.96094 0.0562,-0.1643 0.11177,-0.3279 0.16797,-0.49219 0.82693,-2.1943 2.06789,-4.16931 3.91992,-5.63281 1.00565,-0.53743 1.9984,-1.09617 3.01563,-1.61133 0.44787,-0.22682 0.95717,-0.36235 1.45898,-0.37695 0.44316,-0.0129 0.86324,-0.0235 1.26563,-0.0273 z m -7.45508,13.45508 c -0.0135,-0.0704 -0.005,-0.006 0.0156,0.1875 3.1e-4,0.0133 -0.003,0.0122 -0.008,0.01 0.016,0.0312 0.031,0.0591 0.0469,0.0898 -0.0166,-0.0915 -0.0484,-0.25424 -0.0547,-0.2871 z m 21.125,28.01171 c 2.31166,0.0935 4.62397,0.17397 6.93359,0.30469 0.40227,0.0214 0.80469,0.0356 1.20703,0.0547 -0.18517,-0.079 -0.37547,-0.14432 -0.56054,-0.22266 0.0253,0.0347 -0.0347,0.0538 -0.32618,0.0156 -0.73267,-0.0577 -1.46494,-0.0963 -2.19921,-0.1211 -1.30461,-0.0222 -2.61125,-0.0253 -3.91602,-0.0293 -0.37987,-10e-4 -0.75927,-9.2e-4 -1.13867,-0.002 z" />
    </clipPath>
  </defs>
  <sodipodi:namedview
     id="namedview6654"
     pagecolor="#505050"
     bordercolor="#eeeeee"
     borderopacity="1"
     inkscape:showpageshadow="0"
     inkscape:pageopacity="0"
     inkscape:pagecheckerboard="0"
     inkscape:deskcolor="#505050"
     showgrid="false"
     inkscape:zoom="0.13605048"
     inkscape:cx="1043.7302"
     inkscape:cy="1278.937"
     inkscape:window-width="1366"
     inkscape:window-height="660"
     inkscape:window-x="0"
     inkscape:window-y="25"
     inkscape:window-maximized="0"
     inkscape:current-layer="g6658" />
  <g
     inkscape:groupmode="layer"
     inkscape:label="Image"
     id="g6658">
    <path
       style="fill:#030304;stroke:none;stroke-width:1.33333"
       d="m 392.69541,370.28496 h 78.6667 c 0,-12.36 0.7293,-24.23334 4.9306,-36 9.092,-25.45734 39.6947,-43.01067 59.6974,-17.328 12.8906,16.55066 13.6146,43.104 8.8413,62.66133 -14.8373,60.784 -70.7867,113.54133 -108.4173,161.33333 -11.176,14.19467 -28.656,30.048 -35.8014,46.66666 -6.2186,14.464 -1.2506,40.29067 -1.2506,56 h 234.6666 l -0.804,-34.26666 -16.5293,-15.29334 -17.3333,-14.96933 -30.6667,-0.804 h -69.3333 c 13.6746,-16.044 24.8706,-34.72933 36.96,-52 5.132,-7.332 14.6493,-16.59333 16.8346,-25.33333 1.4534,-5.81867 -2.192,-13.08 -3.6213,-18.66667 -2.9027,-11.34 -4.8373,-23.016 -5.9467,-34.66666 -3.064,-32.16933 2.3107,-65.896 13.6734,-96 7.708,-20.42267 18.4173,-40.21867 32.0333,-57.33333 4.296,-5.40133 15.548,-13.856 10.744,-21.332 -13.4573,-20.944 -44.396,-29.396 -67.344,-32.37733 -80.132,-10.40667 -139.948,51.132 -140,129.70933 m 530.6667,106.66666 h -57.3334 c -7.196,0 -18.2426,-2.072 -24.9333,0.804 -9.452,4.06533 -17.0853,18.00933 -25.7333,24.31733 -25.3267,18.476 -59.82,21.17067 -88,7.78534 -77.208,-36.67334 -61.4107,-159.86667 26.6666,-168.67867 26.252,-2.62666 50.8454,5.38134 70.6614,22.824 6.34,5.58134 11.5573,18.13734 19.1066,21.47734 6.5947,2.91733 17.7747,0.804 24.8987,0.804 h 57.3333 c -9.5666,-29.39867 -23.3466,-57.34267 -46.6666,-78.44 -92.3427,-83.54133 -248.7707,-41.33867 -276.7667,83.77333 -5.0493,22.568 -5.52,45.248 -1.5667,68 12.6387,72.74266 76.528,130.82133 150.3334,135.88133 58.9373,4.03866 117.7533,-22.40267 151.1053,-71.88133 9.088,-13.48267 19.4493,-30.112 20.8947,-46.66667 m -224,-66.66666 v 43.99999 h 5.3333 v -18.66666 c 14.5813,1.112 3.384,16.68933 14.6667,18.66666 v -43.99999 h -5.3334 c 0,8.63466 1.464,17.83333 -9.3333,18.66666 v -18.66666 h -5.3333 m 24,43.99999 h 6.6666 c 1.008,-7.288 2.8827,-11.40666 10.6667,-12 l 1.3333,12 h 6.6667 l -7.5347,-33.33333 -5.5866,-9.43866 -4.7774,10.772 -7.4346,31.99999 m 26.6666,-43.99999 v 43.99999 h 5.3334 v -18.66666 c 10.36,-0.912 21.3373,-12.17333 11.4213,-22.088 -4.2507,-4.25067 -11.276,-3.24533 -16.7547,-3.24533 m 22.6667,0 v 43.99999 h 5.3333 l 1.3334,-20 c 10.784,1.56534 18.0346,-10.65333 11.196,-19.80266 -4.0787,-5.45467 -11.8867,-4.19733 -17.8627,-4.19733 m 21.3333,0 c 6.8427,16.43066 12,25.78799 12,43.99999 h 5.3334 c 0,-18.09866 4.992,-28.14666 13.3333,-43.99999 -8.8987,0.67733 -11.516,7.10266 -14.6667,14.66666 h -2.6666 c -2.18,-7.56933 -4.8174,-14.00933 -13.3334,-14.66666 m 49.3334,0 c 0,9.87466 -5.212,42.01733 6.6666,43.99999 v -24 h 1.3334 c 1.3986,8.12134 4.7866,21.32534 13.3333,24 v -43.99999 h -5.3333 v 23.99999 c -4.2747,-8.02533 -5.7974,-22.33599 -16,-23.99999 m 25.3333,0 v 43.99999 h 18.6667 v -5.33333 h -12 v -13.33333 h 12 v -6.66667 h -12 v -13.33333 h 12 v -5.33333 h -18.6667 m 22.6667,0 9.3333,43.99999 h 5.3333 l 5.3334,-26.66666 h 1.3333 l 5.3333,26.66666 c 10.8334,-3.56133 12.0147,-33.75333 14.6667,-43.99999 h -6.6667 l -5.3333,25.33333 h -1.3333 l -5.3334,-25.33333 c -8.2533,2.71333 -8.9973,17.63999 -9.3333,25.33333 h -1.3333 l -5.3334,-25.33333 h -6.6666 m 60,0 c 6.0613,16.65466 12,25.65999 12,43.99999 h 5.3333 l 12,-43.99999 c -8.1413,0.64666 -10.772,7.62933 -13.3333,14.66666 h -2.6667 c -2.1427,-7.424 -4.984,-14.00666 -13.3333,-14.66666 m 32,0 v 43.99999 h 17.33329 v -5.33333 h -11.99999 l 1.3333,-14.66667 10.66669,1.33334 v -6.66667 h -11.99999 v -13.33333 h 11.99999 v -5.33333 h -17.33329 m 21.33329,43.99999 h 6.6667 c 1.008,-7.288 2.8826,-11.40666 10.6666,-12 l 1.3334,12 h 6.6666 l -7.72,-33.33333 -5.4013,-9.43866 -4.7773,10.772 -7.4347,31.99999 m 26.6667,-43.99999 v 43.99999 h 5.3333 v -18.66666 c 10.3533,1.61733 9.3333,10.076 9.3333,18.66666 h 5.3334 c 0,-9.63466 3.6946,-35.68666 -4.304,-41.86266 -4.164,-3.21333 -10.7654,-2.13733 -15.696,-2.13733 m -275.99999,18.66666 v -13.33333 c 11.124,0.85867 11.2333,12.476 0,13.33333 m 22.6666,0 v -13.33333 c 11.304,0.86267 11.304,12.47066 0,13.33333 m 266.66669,0 h -8 v -13.33333 c 8.612,0.66533 9.348,5.7 8,13.33333 m -307.99999,-1.33333 1.3333,8 h -4 l 2.6667,-8 m 281.33329,0 1.3334,8 h -4 l 2.6666,-8 m -113.33329,294.66666 57.3333,-1.33334 c 0,-14.26666 -2.7746,-31.96933 3.1507,-45.33333 8.6373,-19.47733 35.06399,-24.17333 50.04269,-9.19333 16.9066,16.90667 17.7253,75.58666 -1.2507,91.34 -13.3827,11.10933 -33.15199,8.52 -49.27599,8.52 v 56 c 15.8693,0 34.8333,-2.26 47.76799,8.90799 19.52,16.852 15.6013,60.048 12.608,83.092 -1.228,9.45067 -2.604,18.216 -9.7827,25.19334 -22.36259,21.73733 -52.93059,0.57866 -53.25459,-26.52667 -0.16,-13.32933 -0.01,-26.66933 -0.01,-40 h -58.667 c 0,24.88933 -2.2027,50.56533 5.18,74.66667 18.4746,60.31202 108.84929,77.82402 153.43459,34.54662 28.9147,-28.06796 25.3854,-69.80796 25.3854,-106.54662 0,-30.85867 -6.332,-72.56 -41.3334,-82.66667 v -2.66666 c 32.8814,-9.676 41.3334,-49.088 41.3334,-78.66667 0,-33.95333 -1.98,-69.42533 -30.6667,-92.70933 -48.8787,-39.67333 -136.03729,-16.804 -150.09999,46.04267 -3.7627,16.81733 -6.848,40.59333 -1.9,57.33333 m -260,9.33333 h 77.3333 c 10e-4,-11.136 0.9707,-22.688 4.4787,-33.33333 9.3347,-28.33467 41.724,-46.99067 62.4547,-17.33333 11.348,16.23333 11.3973,42.83999 6.74,61.33333 -14.9334,59.29066 -69.1427,110.57999 -105.9547,157.33333 -11.2733,14.31866 -31.656,32.04266 -37.6,49.33333 -5.3173,15.46669 -0.7853,39.63873 -0.7853,55.99999 h 165.3333 46.6667 l 19.576,-0.804 3.0906,-12.52926 v -37.3334 l -3.0906,-13.86266 -38.2427,-0.804 h -93.3333 c 16.628,-24.644 33.212,-49.928 51.5493,-73.33334 32.356,-41.29999 66.8773,-83.21466 72.672,-137.33333 2.888,-26.97466 0.9653,-72.22533 -21.9893,-91.52266 -5.888,-4.95067 -16.028,1.472 -22.232,3.52133 -18.6507,6.16267 -37.8894,8.59067 -57.3334,10.44134 -19.8506,1.88933 -42.0733,-1.48667 -61.3333,-6.3 -8.7453,-2.18667 -21.8107,-9.72667 -30.6613,-8.76934 -8.3254,0.9 -14.9014,14.21334 -18.656,20.62934 -13.424,22.928 -18.6827,48.35333 -18.6827,74.66666 z"
       id="path6786"
       clip-path="url(#clipPath6856)"
       transform="matrix(4.3178092,0,0,3.5214484,-1695.5839,-843.12552)" />
    <text
       xml:space="preserve"
       style="font-weight:600;font-size:207.965px;font-family:'.Apple SD Gothic NeoI';-inkscape-font-specification:'.Apple SD Gothic NeoI, Semi-Bold';fill:#ff0000;stroke:#000000;stroke-width:3.90548;stroke-linecap:square;stroke-opacity:0;paint-order:stroke markers fill"
       x="1287.5248"
       y="779.04779"
       id="text6914"
       transform="scale(1.1073147,0.90308563)"><tspan
         sodipodi:role="line"
         id="tspan6912"
         x="1287.5248"
         y="779.04779"
         style="font-style:normal;font-variant:normal;font-weight:bold;font-stretch:normal;font-size:207.965px;font-family:'Bodoni 72';-inkscape-font-specification:'Bodoni 72, Bold';font-variant-ligatures:normal;font-variant-caps:normal;font-variant-numeric:normal;font-variant-east-asian:normal;fill:#000000;stroke-width:3.90548">Happy new year</tspan></text>
    <path
       style="fill:#000000;stroke:none;stroke-width:1.6681"
       d="m 337.54863,1737.2092 c 34.89908,-14.4917 65.88895,-33.4055 105.50048,-41.303 v -1.4243 c -7.17214,0 -14.45947,0.2476 -21.49085,-0.9741 -41.56526,-7.2181 -20.24245,-39.08 -9.76861,-57.42 -11.26504,3.6147 -18.18122,9.0269 -23.4445,17.0909 h -1.95372 c -2.51249,-25.9298 25.1423,-47.0927 58.61136,-54.1214 v -1.4242 c -35.86821,1.1394 -49.91348,20.6487 -76.19482,34.1819 -16.35253,-37.9362 54.29563,-56.967 91.82451,-68.764 89.97434,-28.2827 190.88543,18.0082 259.84373,58.2246 21.23685,12.3867 52.11916,26.5408 66.95757,43.2985 4.00705,4.5249 10.55985,20.901 0.80104,24.0442 -7.07439,2.2788 -16.17085,-6.3722 -20.86953,-9.1379 -13.28141,-7.8206 -27.75833,-12.938 -44.9354,-13.4835 v 1.4243 c 28.78014,6.6412 58.03304,27.2744 60.56509,49.8486 l -25.39826,-11.3939 c 8.13527,10.4183 54.49291,52.0734 5.86112,49.719 -7.2619,-0.3521 -14.2894,-2.0125 -21.49081,-2.719 v 1.4243 c 27.13903,6.7368 49.07726,16.708 72.28734,28.4851 -0.90066,-31.7992 -15.47926,-63.5415 -6.51372,-95.4247 3.70623,-13.1842 16.91722,-20.774 22.67476,-32.7576 5.26341,-10.9567 -9.88576,-11.9281 -12.38451,-20.2357 -1.68408,-5.5973 6.27334,-11.3926 13.8147,-9.8857 28.30345,5.6571 34.90111,42.8342 39.45134,60.0306 16.15133,61.0418 38.74008,118.8804 83.6247,172.3339 h 1.95372 c -20.37919,-51.9679 -51.12476,-99.8639 -63.98406,-153.8188 -8.27594,-34.7287 -7.21899,-83.0108 -43.65175,-109.5344 -22.18642,-16.1496 -55.44059,-14.4733 -83.82803,-19.9068 -53.7192,-10.2844 -118.33824,-31.6625 -146.52835,-68.5291 h -1.95372 c 1.42816,48.8489 77.89259,60.4864 126.99126,75.8854 17.37244,5.4477 53.05698,14.7566 55.67491,30.9332 1.22108,7.5499 -8.69201,14.1584 -18.55436,11.6005 -19.64456,-5.0946 -37.49953,-15.1483 -54.70392,-23.4688 -40.77398,-19.7187 -83.0269,-37.9333 -125.03758,-56.2094 -22.96397,-9.991 -50.24553,-21.9846 -78.14851,-19.9821 -38.22051,2.7416 -73.35794,24.5212 -105.50043,38.2112 5.49579,-17.3147 15.23115,-35.3827 26.12114,-51.273 12.49198,-18.2258 18.21446,-42.3064 38.42949,-56.9083 21.00433,-15.1723 55.41317,-15.1522 81.97775,-8.9685 55.24711,12.8603 99.78781,43.6198 154.34329,59.0248 35.27624,9.9611 71.57222,18.0722 107.45412,26.7915 29.50696,7.1696 56.32552,13.0404 74.73735,32.7577 32.57032,34.8798 31.01901,78.184 39.10938,118.2124 11.87074,58.7473 29.20208,123.7615 67.84856,176.6068 1.0608,-8.4772 -6.1581,-18.7732 -9.03788,-27.0608 -6.53518,-18.8156 -11.63827,-37.7724 -15.5379,-56.97 -10.1652,-50.065 -8.63743,-100.4662 -8.63743,-150.97 0,-27.3356 1.06093,-59.0023 -27.38121,-79.7365 -28.86024,-21.0404 -73.27983,-26.521 -111.33225,-33.4556 -41.11785,-7.4941 -79.39696,-18.6367 -117.22274,-32.4328 -54.48911,-19.8737 -104.1602,-43.426 -164.11181,-54.3017 -21.88158,-3.9691 -53.68807,-8.2697 -74.21179,0.8517 -17.09299,7.5962 -18.15198,22.4239 -21.93239,35.2864 -4.5619,15.5285 -12.64436,31.1487 -21.68227,45.5759 -14.18395,22.6427 -30.45247,47.2508 -51.67955,66.8785 -10.0304,9.276 -31.62679,12.1189 -36.46809,24.2791 -4.36651,10.9652 3.04591,22.4461 7.24049,32.752 5.03086,12.3596 7.21895,25.6463 8.89132,38.4546 3.3995,26.0424 -13.90455,46.8236 -27.01977,69.788 m 117.22269,-21.3635 c 43.86276,-13.3126 72.85193,-18.1094 119.1765,-7.1213 -22.35443,-51.4965 -98.88721,-36.2428 -119.1765,7.1213 m 175.8341,9.9697 c 38.76356,-3.5721 63.08928,5.667 93.77819,21.3635 0,-12.8509 -0.16969,-25.6149 -14.03741,-35.1374 -23.93491,-16.4359 -69.03054,-9.1936 -79.74078,13.7739 m -101.58523,11.0322 c -26.00388,7.0727 -16.98164,46.9815 11.70666,39.1782 25.95504,-7.0602 16.77067,-46.9249 -11.70666,-39.1782 m -214.9161,75.8468 1.95373,-5.697 c -23.6888,-8.0584 -34.89723,-37.5788 -11.61487,-50.649 16.14157,-9.064 28.02992,8.2093 29.19819,17.8912 l 11.72234,-11.394 c -10.39763,-5.7966 -17.58346,-15.7805 -31.25939,-17.9483 -18.42741,-2.9197 -30.83546,8.708 -32.85365,20.797 -2.98913,17.9155 7.01973,41.4056 32.85365,47.0001 m 335.96226,-54.1628 c -15.7645,2.4896 -19.35152,30.3692 -1.95373,27.2588 14.02766,-2.5082 18.9842,-29.9491 1.95373,-27.2588 m -345.73087,5.7383 c 4.99765,3.0281 16.63004,9.3317 10.3586,14.8137 -4.68305,4.0961 -15.88371,2.9638 -12.17946,10.7673 3.02437,6.3693 12.1931,7.9244 18.12854,2.6875 12.57993,-11.1005 6.26751,-32.0384 -16.30768,-28.2685 m 105.50049,111.0913 v -1.4241 c -24.48004,-0.3689 -54.43238,-5.9505 -64.24002,-24.2124 -14.00421,-26.0736 11.22017,-70.2396 56.42517,-62.6667 -18.90993,-13.9207 -49.13779,-11.6676 -65.78346,2.8541 -35.92875,31.342 -28.40497,90.9126 38.43148,91.1447 13.22277,0.046 23.51488,-0.8673 35.16683,-5.6956 m 423.95553,-54.1213 -1.95372,5.697 h 1.95372 c 4.16924,-6.3251 5.35711,-11.9424 -3.90748,-15.6667 l -1.95368,4.2727 h -3.90741 c -10.84508,-21.6927 16.80198,-21.848 21.28572,-1.5511 2.06897,9.3659 -4.82567,17.4557 -9.56342,25.7632 18.45086,-10.5549 29.87617,-58.1861 -9.75886,-51.9152 -25.60728,4.0506 -12.69522,31.2438 7.80513,33.4001 m -263.75113,-21.3638 c -11.16741,2.4285 -23.52463,1.6295 -32.84583,7.6824 -20.7074,13.4494 -7.28734,37.9292 13.31068,46.61 27.56295,11.6162 68.25485,10.8172 97.68361,3.5948 26.7756,-6.5701 51.25762,-28.945 21.49082,-45.0689 9.56338,15.0857 -2.61992,28.4493 -23.4445,34.142 -24.72425,6.7595 -58.11119,4.9877 -80.10218,-6.3293 -11.88253,-6.1158 -23.24527,-17.6451 -13.07817,-27.8127 3.53814,-3.5393 18.90022,-9.2833 16.98557,-12.8183 m 214.90833,15.6668 v 1.4242 c 44.79274,16.987 27.55121,61.4136 -13.67601,71.2124 72.10172,22.0559 89.11272,-72.4842 13.67601,-72.6366 m 232.4917,47.0002 c 25.3983,-12.0791 71.6192,-20.3952 95.7319,-1.4243 l -21.4908,-1.4243 c 14.5903,16.7962 29.0595,26.6819 29.3056,48.4245 l -15.6297,-1.4244 13.676,34.1821 -27.3519,-5.697 c 0.4864,17.1635 -0.342,28.1232 -17.5834,41.3032 l -9.7686,-8.5456 c -6.6661,15.2182 -25.2869,25.504 -46.8891,25.6364 0,-6.5131 1.0433,-14.278 -6.4062,-19.0108 -12.44314,-7.9074 -33.28737,-5.177 -34.62174,7.617 -20.8422,-6.6828 -30.3001,-20.9892 -31.25943,-37.0305 -27.63912,7.2722 -21.55524,-11.7644 -11.72221,-22.7881 -9.98152,1.9043 -19.65436,3.4667 -25.97853,10.0311 -16.33302,16.9528 7.08808,31.6026 29.88594,29.8479 -5.11484,22.4134 29.89957,31.9787 54.70396,32.7577 -1.48878,-12.4992 14.54731,-4.1844 11.72221,7.1213 21.8758,5.0545 51.8711,4.3896 60.5651,-14.2426 h 3.9074 l 3.9075,11.394 c 31.3688,-6.6811 43.8608,-31.5556 29.3056,-52.697 l 15.6297,14.2425 c 25.0603,-3.696 22.7257,-23.5971 15.6297,-37.0305 l 19.5372,9.9697 h 1.9537 c 13.5431,-17.8117 2.3698,-37.8366 -15.6297,-51.2729 l 17.5834,8.5454 c -1.1097,-8.92 -6.4473,-13.5074 -17.5834,-17.0908 v -1.4243 l 19.5371,4.2727 c 0,-33.4612 -53.9283,-65.1521 -97.6856,-42.7273 l 13.676,-8.5456 c -34.7351,-10.6262 -51.7284,17.9569 -56.6577,37.0305 m -720.91976,-24.2122 c -10.13775,9.1707 -20.8324,18.6448 -26.28134,29.9092 -24.55228,50.7588 71.02917,65.5153 120.05953,65.5153 l -27.35202,15.6667 c 26.8499,11.7245 68.79613,0.9043 97.68567,0 l -5.86116,12.8182 c 40.87164,0 87.57518,-1.5452 116.86133,-25.6422 21.46927,-17.6648 39.01171,-55.9643 4.26884,-70.6894 -63.17136,-26.7745 -134.34898,24.4928 -197.32486,26.488 -28.55942,0.9044 -70.95301,-5.4007 -83.06606,-27.0052 -5.60905,-10.0054 2.2058,-17.5039 1.01007,-27.0606 m 590.02111,17.0908 c -0.47868,42.1636 -75.34495,55.8676 -121.13023,42.2831 -30.94673,-9.1835 -55.40332,-28.9364 -87.91703,-35.4665 -16.82732,-3.3811 -39.75998,-1.7618 -54.70193,4.8822 -26.05276,11.5822 -19.01943,37.8422 -9.36611,55.2408 19.45113,35.0593 73.34434,45.576 120.72573,45.576 l -3.90744,-12.8182 c 31.70679,6.5102 61.30555,7.1868 93.77819,7.1212 v -1.4241 l -23.44453,-12.8184 c 25.08565,0 52.5451,-1.1479 74.24106,-11.5477 35.46769,-17.0013 38.04072,-57.7859 11.72229,-81.0284 m 70.33361,2.8487 1.95368,1.4241 -1.95368,-1.4241 m -672.07701,74.0607 c -2.70973,18.5937 -3.33301,37.5432 -11.22601,55.5456 -18.92556,43.1632 -72.69373,83.2401 -129.44118,101.2983 -18.6228,5.9262 -38.43736,6.5543 -56.655704,-0.7705 -7.560829,-3.0394 -17.366617,-9.3758 -14.096093,-16.4686 4.767077,-10.333 21.881578,-2.5937 12.140471,5.6685 v 1.4243 c 21.490816,-1.2093 19.105316,-23.0231 3.870225,-29.8964 -20.922333,-9.44 -46.56537,0.8389 -51.679038,17.078 -3.693281,11.7288 1.51296,22.4562 8.734496,32.7578 -9.004489,-7.9885 -13.740866,-16.8432 -15.629692,-27.0608 -11.394051,7.305 -9.549181,17.0569 -7.814889,27.0608 H 21.0473 l -5.86121,-12.8183 h -1.953636 c -4.0787757,39.0416 42.020357,62.3464 91.824426,63.943 60.79761,1.9484 139.54396,-29.9176 154.34329,-75.337 h 1.95364 c 0,20.3411 -3.077,36.1774 -11.72221,55.5458 32.61919,-2.0767 60.90892,-22.214 66.42622,-45.5761 h 1.95363 c -1.81883,30.8935 -19.68752,71.899 12.36513,98.1449 25.0192,20.4864 73.30129,25.7148 106.81136,35.7343 -8.81903,-14.4274 -24.46828,-26.5435 -33.48464,-41.3031 -27.14296,-44.4308 -42.82546,-95.8147 -26.34788,-143.8488 8.32491,-24.2693 26.99067,-49.3545 59.83252,-59.8185 v -1.4241 l -82.05598,-4.2729 c -7.91049,24.9273 -19.04866,52.9093 -46.88903,69.7882 l 12.27911,-55.5456 -0.61153,-26.934 -35.11216,-22.9148 m 312.594,18.5153 c -7.31475,8.0613 -16.16894,15.658 -27.35198,21.009 -6.53906,3.1291 -15.97749,3.7742 -19.92785,9.1053 -28.90325,39.0086 -23.05387,95.1967 -23.05387,137.9469 0,11.1447 -6.40232,37.0717 3.93284,46.1412 7.03146,6.1684 40.21132,3.7074 50.77117,3.7074 l -9.76861,-72.6367 h 1.95377 l 20.66244,52.6972 13.19337,18.0624 63.8297,7.5741 c -6.30854,-9.8758 -18.79858,-17.9926 -27.29529,-27.0608 -21.4928,-22.9375 -41.94031,-50.1932 -44.99201,-78.3334 55.11813,-1.752 62.51877,-51.424 62.51877,-82.6064 -24.4429,-3.1791 -47.44586,-21.1487 -60.56504,-35.6062 h -3.90741 m 285.24195,5.697 -31.25943,12.8182 c 5.27702,6.758 14.5689,11.4723 15.08466,19.9394 0.75803,12.3967 -17.83152,27.6504 -34.41661,17.8971 -10.5149,-6.1813 -11.39016,-17.3174 -11.92743,-26.4425 l -35.16679,7.1211 c 4.38802,8.7906 11.92938,16.5156 15.31903,25.6364 8.28372,22.291 2.05921,44.0834 -7.50418,65.5156 9.21956,-2.4426 17.37823,-6.3238 27.35194,-7.1029 53.19178,-4.1517 32.43361,65.6208 64.50181,81.5867 14.23085,7.0842 34.87572,3.3468 50.7672,2.5523 19.42375,-0.9685 39.11132,2.1875 56.65769,8.2619 23.81571,8.2464 57.71261,56.3775 87.91701,27.2173 l -11.7223,1.4245 v -1.4245 c 21.4928,-3.7284 26.676,-24.1879 1.9538,-27.0605 12.5564,16.9156 -14.7135,13.8892 -12.8008,0 1.2191,-8.849 13.5393,-16.3518 18.6619,-24.2122 h 1.9537 l -3.9074,11.3938 c 48.3152,-20.8024 2.6668,-54.7352 -16.8137,-75.4851 -4.2024,-4.4778 -4.4505,-9.8571 -8.5846,-14.2424 l -7.8148,5.697 c 5.6852,-9.9954 -0.5393,-17.6849 -15.6297,-18.5153 v 1.4243 c 4.9937,4.0806 5.1597,9.5753 -3.9465,10.8129 -11.9782,1.628 -26.8362,-4.361 -39.03522,-4.9877 -29.2412,-1.5026 -54.67858,0.7178 -82.05586,8.4172 1.04517,5.1558 3.05757,16.6879 10.58718,19.0224 7.14468,2.216 19.12289,-2.2403 26.53333,-2.944 19.46874,-1.8487 40.85407,0.863 53.942,12.4636 18.34927,16.2649 4.12424,37.7269 -24.63634,37.5774 -24.37645,-0.1253 -44.87284,-15.1626 -57.24569,-29.0889 -9.919,-11.1646 -21.51823,-27.552 -19.86926,-41.3032 4.03637,-33.6847 49.64384,-55.5926 13.56271,-89.7274 -5.78889,-5.4763 -12.74017,-10.279 -20.45735,-14.2425 m -451.30747,243.5462 h 3.90739 c 17.73968,-20.6601 51.71086,-30.8963 84.00963,-32.7575 l -1.95372,-38.4548 c -12.26154,3.3825 -23.19251,10.1177 -37.12051,9.5781 -19.60553,-0.7606 -33.26393,-17.5341 -20.64491,-29.4621 12.93749,-12.2286 35.80767,-12.908 53.85797,-18.5708 l -5.86116,-31.3335 c -14.38129,4.3655 -34.35798,14.8963 -50.7945,12.1447 -25.63858,-4.2914 -16.01652,-34.1278 -1.86969,-42.9938 21.47911,-13.4606 44.18703,-5.7183 66.3402,0.94 0,-21.0617 5.4587,-35.1917 17.58346,-54.1213 -25.13065,0.7891 -51.20097,5.214 -76.19483,7.7251 -9.52824,0.9555 -22.92096,0.4129 -31.07764,4.5277 -19.7462,9.9612 -27.10578,35.8783 -32.12299,51.8382 -17.55599,55.8506 -4.18283,110.8906 31.9413,160.94 m 298.91791,-25.6364 c -4.77874,-23.2552 -31.14993,-46.768 -23.44454,-71.2124 h 1.95368 c 2.22337,18.4483 17.58933,39.1241 28.82315,55.5457 3.87812,5.6684 7.38116,13.7497 14.57472,17.6563 8.05319,4.3723 23.29998,2.2831 32.79695,2.2831 30.79635,0 65.80886,1.7047 76.19479,-24.2122 -58.58015,6.278 -116.50771,-30.8706 -119.17646,-75.485 50.42726,0 54.06506,-30.3466 43.70456,-59.8185 -2.79189,-7.9459 -6.53323,-20.7826 -15.21553,-26.4811 -5.51341,-3.6174 -15.83094,-2.2417 -22.62791,-1.7616 -21.0102,1.4812 -48.07306,-2.6393 -68.09858,1.6349 -7.69572,1.6421 -7.893,9.0141 -9.36611,13.7896 -4.22005,13.6641 -6.73837,27.4439 -9.32703,41.3032 -5.10115,27.327 -5.46065,56.7804 0.67207,84.0305 1.88537,8.3832 2.19794,22.674 10.92708,28.985 11.83373,8.5539 41.59259,12.2341 57.60916,13.7425 m -109.40789,-152.3945 -5.86117,-1.4242 c -7.22672,9.1081 -27.45155,12.2941 -38.06801,3.7115 -7.53937,-6.0942 -3.09859,-12.502 6.80871,-13.6812 l -3.90744,5.697 c 4.0989,0.1116 10.79422,0.1359 9.92289,-4.4111 -0.87328,-4.5475 -12.48232,-7.5299 -10.40739,-12.2327 5.30037,-12.0207 30.53062,-6.6442 39.01361,-0.9699 9.33683,6.2454 6.28513,15.7364 2.4988,23.3106 m 123.08386,21.3638 -3.9074,-2.8486 c -4.18094,6.1969 -10.33511,8.7548 -19.5371,9.9697 l 1.95368,-5.697 -21.49086,-2.8484 3.90749,-2.8486 c -2.64928,-5.7055 -6.91817,-15.366 -0.2772,-20.5048 5.24376,-4.0562 36.06165,-4.5036 40.95567,0 6.49999,5.9833 0.8655,18.3699 -1.60402,24.7777 m 48.8428,48.4243 h 9.76852 v 1.4243 c -17.17702,1.8856 -25.2439,8.9044 -25.39817,21.3638 h 1.95363 l 3.90749,-2.8487 c 0.65445,20.3797 44.61104,52.5819 70.33366,31.3335 -13.42204,-2.3515 -31.83577,-11.2288 -21.99298,-22.7821 4.15555,-4.8782 14.25037,-7.7337 16.72378,-13.1217 3.11228,-6.7767 -5.14803,-18.2746 -6.45309,-25.3389 -16.78043,0 -37.37651,-0.319 -48.84284,9.9698 m -767.808853,7.1213 -1.953722,1.4242 1.953722,-1.4242 m 27.35194,52.697 13.675969,21.3638 c -47.189941,5.942 -82.576935,58.7246 -57.8953012,89.7219 10.8069582,13.573 38.6587272,20.2856 48.1267762,2.8541 -33.458099,6.3764 -15.346616,-30.5044 6.996233,-11.2387 13.994451,12.0663 3.135722,29.1059 1.158598,42.5722 -2.770393,18.8586 4.284432,39.2836 12.740171,56.9699 47.789767,99.9637 163.664397,190.2024 309.282387,210.7884 -1.20346,-3.9963 -5.21837,-15.9415 5.91972,-14.7679 6.98846,0.7363 12.73235,8.2664 16.7433,11.9195 12.31033,11.2118 25.12869,21.862 39.8557,31.4047 37.50937,24.3019 79.37152,37.1499 126.9913,46.9289 -11.2475,-22.3964 -29.30566,-36.0846 -29.30566,-61.2426 h 1.95368 c 9.09456,38.5016 62.91933,78.4545 103.54676,100.9365 14.72123,8.1448 32.24998,17.7147 50.79657,20.124 -14.13901,-32.2345 -56.54245,-94.4541 -9.76861,-121.0605 -6.97275,18.0893 -13.12895,47.1055 15.62973,56.9699 18.21058,-35.384 28.06507,-86.2868 91.82443,-92.5762 l -23.44449,25.6364 c 73.24075,-2.2986 146.67684,-39.9613 193.3198,-78.3334 18.59935,-15.3007 40.55318,-35.8739 43.07938,-56.9699 h 1.9537 l 3.9074,25.6364 h 1.9537 c 29.3232,-31.7135 51.0876,-75.193 43.5111,-113.9398 -3.1024,-15.8617 -7.8636,-32.3047 -27.9107,-41.4071 -44.24568,-20.0947 -114.49536,-12.3823 -149.9884,-42.6291 -19.05065,-16.2336 -5.64821,-40.0896 15.21937,-51.938 9.68454,-5.4976 25.35918,-10.9996 37.02677,-5.3937 25.12861,12.0734 -19.49025,30.647 -3.82148,47.3677 l 5.86117,-8.5456 h 1.95372 c 0.0129,14.5247 6.77542,25.598 23.44454,34.182 l -1.95377,-11.394 h 1.95377 c 15.3698,21.5389 72.94961,29.8166 94.46391,8.4886 14.5571,-14.4306 8.5475,-37.8067 -18.2691,-39.822 5.1929,9.0824 -9.4834,20.7826 -15.8388,9.8814 -4.3587,-7.4801 -0.062,-16.4001 0.1796,-24.1238 0.5119,-16.3105 -7.5647,-32.9172 -25.3982,-43.414 -35.40913,-20.8423 -111.07641,-19.2459 -146.49129,1.2421 -19.91028,11.5178 -32.35939,34.0452 -34.84058,52.1416 -1.02181,7.443 -0.86939,15.4887 1.40079,22.788 15.86419,51.0106 121.91947,38.5599 145.64726,84.0305 12.789,24.51 -28.68243,55.6681 -49.72588,71.2067 -66.35778,48.9997 -163.47485,88.1551 -259.81437,82.612 11.75938,-14.7424 25.45098,-48.0143 -1.95377,-58.3942 -21.88347,55.268 -114.44055,59.2402 -177.78782,51.3854 -143.00389,-17.729 -262.05915,-98.0051 -311.76546,-195.2342 -12.22053,-23.9046 -18.28087,-55.2225 0.0799,-78.3337 19.47648,-24.5185 60.53185,-41.2333 90.49788,-15.661 26.23246,22.3849 -6.36718,54.7765 -42.56359,41.2975 2.82307,25.1948 39.26569,60.6515 70.33362,71.2123 10.37034,-17.0554 16.59485,-36.045 22.71388,-54.1213 4.50326,-13.3053 8.31308,-27.5678 8.53764,-41.3032 0.15026,-9.1723 -0.41019,-18.2519 -4.33521,-27.0607 -3.82929,-8.5898 -12.42168,-15.6837 -21.38727,-21.7126 -57.21447,-38.4817 -121.1478,-5.8281 -185.27055,-2.6263 -19.242096,0.9598 -35.510651,-2.7417 -52.750282,-8.4189 m 453.261192,54.1215 c -2.46162,-4.5861 -1.86184,-16.4815 9.47945,-11.7471 14.79554,6.1741 -3.6378,17.7019 -14.21518,17.5978 -14.85015,-0.1457 -28.49486,-9.135 -18.69119,-19.8455 6.44144,-7.037 18.7791,-10.4566 29.28809,-13.0659 -25.85733,-7.6881 -71.24402,16.6338 -40.66647,34.4667 14.94981,8.7178 43.10469,9.9955 57.83373,0.3802 12.23616,-7.9885 14.16251,-24.5126 -3.501,-29.5175 -26.46502,-7.4971 -53.11951,20.3867 -19.52743,21.7312 m 64.47258,129.6064 c -38.07198,-8.1239 -28.42064,39.4802 3.9074,41.1325 26.13285,1.3344 35.49697,-23.1386 35.06135,-38.2839 -0.70527,-24.5554 -28.20773,-40.8887 -56.55216,-49.8486 -6.93371,-2.192 -17.37042,-7.812 -25.19317,-6.9318 -15.13932,1.7033 -15.89346,27.1802 -17.23177,35.4166 -4.81781,29.68 -8.96161,88.8744 32.65637,106.2959 12.18727,5.1031 25.50573,4.8112 39.07427,4.7956 83.47621,-0.099 118.95755,-80.3946 82.05587,-128.1823 l 11.72224,4.2727 c -7.58233,-40.819 -86.76042,-18.5125 -116.40408,-45.6372 -28.77422,-26.3302 28.11201,-56.8616 61.67089,-40.0269 19.56831,9.8186 5.04056,32.8003 -17.55216,31.4687 -22.62981,-1.3332 -10.18083,-16.144 -1.95571,-22.7139 -24.49761,-5.267 -42.70227,12.6772 -27.93216,28.4633 15.78988,16.8746 53.18781,16.137 70.47429,1.4244 12.18334,-10.3684 13.41025,-27.0693 17.81782,-39.8577 3.85274,-11.1745 11.77113,-20.7982 17.78851,-31.3332 -33.15054,-6.2524 -81.03211,-14.8179 -111.35375,1.1236 -18.42737,9.6879 -29.78425,27.5763 -36.2784,43.028 -4.42718,10.5353 -10.15545,23.3321 -4.47606,34.1804 8.90315,17.0056 42.8176,18.7988 62.23755,26.8814 38.48614,16.0156 42.84683,54.1968 22.43249,81.3629 -30.53266,40.6309 -88.84895,-7.6126 -75.07526,-39.879 11.74763,-27.5207 59.38503,-13.724 49.84111,11.3884 -5.85922,15.4189 -35.06717,7.1483 -16.73548,-8.5399 m 117.22269,-148.1217 c -9.21368,29.0306 -21.21927,55.2439 -41.02795,81.1821 l 41.02795,-2.8485 c 0,37.3183 3.75313,75.8 -7.15448,112.5156 -4.75149,15.9929 -18.72046,28.8894 -24.1049,44.1515 32.44333,12.2714 26.70137,36.2785 25.3983,58.3943 26.75414,-13.8622 34.40677,-44.5191 37.26701,-66.9397 6.45897,-50.6504 -4.46616,-97.8614 -9.91511,-148.1217 l 105.50049,4.2728 c -9.79983,-31.161 -4.03836,-51.1774 7.81484,-81.1821 l -134.8061,-1.4242 m -386.83499,213.637 c 5.77909,-13.1771 10.39768,-26.5877 15.6297,-39.8788 6.50003,-16.5098 12.47838,-33.1167 17.80418,-49.8487 1.17803,-3.7029 5.03862,-17.1635 14.05499,-10.3087 6.36911,4.8411 -3.87424,25.4087 -5.31605,31.6724 -4.26103,18.5223 -7.91061,37.1715 -13.27937,55.5457 -1.81107,6.2054 -9.43835,16.6851 -6.70707,22.788 4.94674,11.0506 27.82279,20.2598 42.28612,22.7879 -5.95491,-17.6236 -3.90745,-36.1033 -3.90745,-54.1213 0,-55.0273 12.77925,-108.5292 44.9354,-158.0915 l -33.21311,-4.2728 -13.67597,56.9701 -15.62969,-2.8487 10.59694,-42.7274 2.8485,-16.4955 -25.16773,-9.141 c -2.48123,42.1136 -19.55273,86.3479 -35.16683,126.7582 -36.83717,-19.5281 -74.74318,-40.3519 -91.69749,-72.6367 -6.46872,-12.317 -11.79651,-31.0216 6.09563,-40.0256 16.83712,-8.4716 19.92397,6.2167 13.31448,14.3892 22.12001,-0.379 39.56858,-19.575 19.27738,-32.1452 -9.75488,-6.0419 -23.72593,-4.8055 -34.90703,-1.8872 -38.22436,9.9767 -40.54345,43.7613 -32.97865,68.2142 15.55936,50.3016 61.99916,108.9649 124.80312,135.3034 m 171.92654,-176.6066 c 6.82827,36.9708 16.94071,69.3993 4.11262,106.8186 -5.32584,15.5357 -12.70113,32.0385 -33.41829,39.8789 15.36204,19.3769 43.94295,39.5101 72.28734,48.4244 -29.03407,-54.8676 -22.3504,-135.4388 1.95377,-190.8491 l -44.93544,-4.2728 m -33.21294,223.6068 c -42.25878,-9.1509 -40.29922,-65.4242 -41.02798,-91.1518 h 1.95367 c 9.03208,31.8162 29.99928,78.3807 66.4282,98.944 54.31117,30.6553 153.80403,25.0383 177.78579,-26.3073 -37.35488,9.7419 -79.82468,16.0526 -119.17637,7.4473 -59.06076,-12.9151 -94.40332,-57.9682 -115.269,-97.1748 56.39973,11.5533 64.54083,-28.6432 64.47248,-59.8185 -0.0302,-13.8851 -1.80528,-32.104 -15.99109,-42.4639 -34.02779,-24.8488 -59.61754,1.0384 -67.76451,25.373 -12.51552,37.378 -13.9261,77.073 -13.93008,115.364 -10e-4,13.7724 -3.71789,27.5135 -1.39487,41.3031 2.76841,16.4216 41.70395,52.8922 63.91376,28.4849 m 506.01141,-206.5157 -1.95372,1.4241 1.95372,-1.4241 m -502.10405,35.6061 h 1.95377 l 1.95372,-2.8483 c 6.99429,17.2489 -18.70293,49.2717 -37.12054,24.2121 l 5.86116,1.4243 c -5.86505,-9.1608 -9.19417,-20.5278 -1.7779,-29.9037 12.34358,-15.6082 28.69417,-7.7294 29.12979,7.1156 m 277.42715,-2.8483 c 2.44996,21.8719 9.47556,43.4522 11.54647,65.5153 4.56582,48.5994 -6.57819,95.8232 -29.12984,141.0004 16.7882,-3.9139 46.84218,-7.2423 59.4143,-16.6624 6.9474,-5.2056 4.7397,-15.2251 5.13435,-21.7922 1.0589,-17.5881 1.87752,-35.0281 1.87752,-52.6972 h 1.95372 l 5.86112,35.6061 c 15.04165,-8.611 17.43298,-25.2804 17.58337,-38.4547 h 1.95377 c 2.69613,24.9087 -0.42962,47.0457 -9.76861,71.2123 11.85515,-1.2761 30.54634,-4.653 36.77081,-12.9519 5.97256,-7.9617 2.36011,-22.3465 2.30147,-31.1997 -0.20509,-31.1639 -9.40125,-63.8788 -19.78325,-94.0004 -6.87313,-19.9493 -10.58325,-41.3029 -42.73353,-41.3029 11.40774,29.5815 19.5371,61.8322 19.5371,92.5759 l -22.22148,-68.3638 -10.4602,-24.2294 -29.83709,-4.2554 m 76.19478,4.2727 c 6.14636,18.8654 19.3437,36.7198 26.52361,55.5455 13.43568,35.2359 16.86053,73.5353 10.59694,109.667 11.86491,-4.6032 39.0254,-12.7527 42.92503,-22.916 5.1226,-13.3481 -14.1644,-29.586 -3.37601,-42.4655 6.30067,-7.5229 19.62107,-8.819 22.74898,1.0554 3.21582,10.1477 -3.85274,23.3092 -7.59412,32.9926 39.23446,-9.7233 78.89285,-60.6117 47.53381,-86.6312 -17.21022,-14.2809 -47.73109,-18.2987 -70.97831,-25.0995 -16.66907,-4.8765 -29.21775,-13.8366 -44.93539,-19.2813 -6.95129,-2.4072 -15.94619,-1.5655 -23.44454,-2.867 m -132.85243,19.9394 -1.95372,1.4243 1.95372,-1.4243 m -248.12139,1.4243 1.95368,1.4241 -1.95368,-1.4241 m 431.77034,12.8181 c 13.3185,5.6656 29.48347,8.0341 37.12055,18.5152 l -7.81484,-2.8484 c 5.69113,7.2778 7.81678,24.2876 -11.51133,16.8146 -9.8291,-3.7999 -19.98057,-24.8929 -17.79438,-32.4814 z"
       id="path6103" />
  </g>
</svg>
