<?xml version="1.0" encoding="UTF-8"?>
<!-- Created with Inkscape (http://www.inkscape.org/) -->
<svg width="5e3" height="2600" version="1.1" viewBox="0 0 5e3 2600" xmlns="http://www.w3.org/2000/svg">
 <defs>
  <clipPath id="clipPath6856">
   <path d="m392.7 239.43v766.73h694.8v-766.73zm311.46 158.29c2.8167-0.0267 4.7388 0.285 7.2012 2.5605 1.6796 1.7019 2.9084 3.7216 3.5137 6.0449 0.17083 0.67484 0.31973 1.3542 0.46094 2.0352 0.0668-2.5e-4 0.13439 4.2e-4 0.20117 0 2.3693-0.0167 4.737-0.0333 7.1055-0.0234 2.3684 0.01 4.7375 0.0463 7.1055 0.13477 5.4578 0.42112 10.926 0.63969 16.396 0.80273 5.1178 0.14469 10.236 0.23095 15.355 0.28125 4.1417 0.0351 8.284 0.0476 12.426 0.0566 3.2995 6e-3 6.5989 7e-3 9.8984 8e-3 3.2523 7.3e-4 6.5036 2e-3 9.7559 2e-3 4.6389 1.7e-4 9.279-2e-5 13.918 0 7.3646 2e-5 14.729-1e-5 22.094 0h226.4c12.474 0 16.559 8.4122 12.348 13.994 9.5659 8.4242 2.9417 22.971-16.684 20.408-0.113-0.0148-0.2283-0.0148-0.3417-0.0293 0.4266 0.38398 0.7884 0.87692 1.0507 1.5254 0.1633 0.54218 0.2625 1.0962 0.377 1.6465 0.058-5e-3 0.1149-9e-3 0.1719-0.01 2.0002-0.0311 3.6334 2.2186 2.3105 5.8008-0.1123 0.30403-0.2322 0.60684-0.3613 0.9043 2.3477 0.0417 4.6961 0.0716 7.0429 0.13281 0.3353-0.0903 0.6774-0.1906 0.7911 0.0176 0.2767 8e-3 0.5533 0.0113 0.83 0.0195-0.1413 1.763 0.01 3.5819-0.2617 5.3203 0.018 0.39244 0.034 0.78497 0.07 1.1738-0.1074-3e-3 -0.2148-5e-3 -0.3222-8e-3 0 0.0103 8e-4 0.0209-0.01 0.0313-0.1396 0.4627-0.9659 0.0185-1.4492 0.0215-1.1161 8e-3 -2.2335 0.01-3.3496 0.0137-3.3502 0.0104-6.7005 0.011-10.051 0.0137-0.511 0.11604-0.9857 0.11021-1.4063 2e-3 -1.485 1e-3 -2.97 4e-3 -4.455 6e-3 -13.108 0.01-26.215-0.0327-39.322 0.12695-4.5559 0.39653-9.1193 0.70891-13.688 0.75781-0.93808 0.01-2.1958 0.59949-2.8125-0.10742-0.0892-0.10222-0.16254-0.21521-0.24414-0.32227-0.26 0.0253-0.51855 0.089-0.77929 0.0781-0.20761-9e-3 0.41027-0.0674 0.61523-0.10156 8e-3 -0.0586 5e-3 -0.12074 0.0117-0.17969-0.47472-0.67569-0.82469-1.4304-1.123-2.2188-4.6941-0.1863-9.3881-0.39142-14.08-0.63281-3.1723-0.21642-6.3478-0.39806-9.5176-0.64844-1.824-0.14408-10.581-0.63268-13.336-1.832-1.127-0.49066-2.6952-1.1049-2.8652-2.3223-0.0143-0.10225 0.0568-0.20222 0.0508-0.30469-0.28443-0.0347-0.56906-0.0669-0.85351-0.10156-1.7465-0.21904-3.4982-0.3835-5.252-0.53125-1.8653 2.8148-5.7313 5.0665-11.781 5.4492-3.468 0.21937-6.9001 0.79024-10.34 1.2695-2.5472 0.34292-5.0946 0.69489-7.6484 0.98633-0.95481 0.11441-1.9116 0.19697-2.8711 0.25977-0.5793 0.0339-1.1601 0.0506-1.7402 0.0586-0.45943 6e-3 -0.91945 5e-3 -1.3789 6e-3 -0.98049 7.6e-4 -1.9609 2e-3 -2.9414 2e-3 -2.3546 1.3e-4 -4.7079-1e-5 -7.0625 0-2.9098 1e-5 -5.8207 0-8.7305 0-1.6909 1e-5 -3.3813 0-5.0723 0-1.0064 0.21423-2.6603 0.3155-3.8789 0.4043-2.3601 0.15253-4.7257 0.17507-7.0898 0.20117-3.9623 0.0301-7.9244 0.0321-11.887 0.0371-4.5463 4e-3 -9.0924 5e-3 -13.639 6e-3 -5.4972 8.1e-4 -10.995-1.1e-4 -16.492 0-5.5723 0.013-11.134 0.32583-16.682 0.82617-3.7945 0.28276-7.5691 0.75772-11.355 1.125-3.3228 0.31095-6.6593 0.43269-9.9941 0.52149-2.9244 0.0702-5.8484 0.0887-8.7734 0.10546-2.0208 0.0105-4.0416 0.0146-6.0625 0.0176-2.3083 0.0927-4.5933-0.17847-6.8594-0.58984-1.9304-0.33432-3.8885-0.46959-5.834-0.69336-3.7188-0.43294-7.394-1.159-11.082-1.791-4.1603-0.78917-8.3642-1.2385-12.582-1.5664-4.5158-0.26887-9.0393-0.35639-13.557-0.59571-3.4982-0.19837-6.9981-0.34764-10.5-0.46289-2.0968 5e-3 -4.1782-0.22632-6.2539-0.49609-1.3266-0.19074-2.6152-0.56329-3.9316-0.80469-0.38842-0.0636-0.78146-0.0788-1.1738-0.0957-1.3616-0.0997-2.6989-0.37097-4.0508-0.54688-1.0514-0.14551-2.0484-0.4976-3.0918-0.66992-1.3481-0.18643-2.4115-0.44967-3.8066-1.0449-0.62367-0.26609-1.1523-0.71494-1.7285-1.0723-3.2804-2.7427-3.9347-5.048-3.9277-9.3106 8.5e-4 -0.52737 0.21377-1.0323 0.32031-1.5488-0.22405-0.25973 0.68337-1.4552 0.63867-1.8203-0.0235-0.19188-0.20386 0.69948-0.082 0.1289 0.0622-0.78375 0.38956-1.8758 0.52734-2.7598 0.27164-1.5082 0.5403-3.0172 0.75196-4.5352 0.11252-1.6804 0.48392-3.3218 0.9043-4.9473 0.21791-1.5854 0.65742-3.1286 1.1348-4.6524 0.17198-0.89462 0.63348-2.252 1.1035-3.3262 0.40516-1.0443 1.1384-2.1317 1.834-3.0781 0.37339-0.49899 0.77838-0.97194 1.1875-1.4414-0.71617-2.667-0.63118-6.0297 0.71289-9.9609 0.0562-0.1643 0.11177-0.3279 0.16797-0.49219 0.82693-2.1943 2.0679-4.1693 3.9199-5.6328 1.0056-0.53743 1.9984-1.0962 3.0156-1.6113 0.44787-0.22682 0.95717-0.36235 1.459-0.37695 0.44316-0.0129 0.86324-0.0235 1.2656-0.0273zm-7.4551 13.455c-0.0135-0.0704-5e-3 -6e-3 0.0156 0.1875 3.1e-4 0.0133-3e-3 0.0122-8e-3 0.01 0.016 0.0312 0.031 0.0591 0.0469 0.0898-0.0166-0.0915-0.0484-0.25424-0.0547-0.2871zm21.125 28.012c2.3117 0.0935 4.624 0.17397 6.9336 0.30469 0.40227 0.0214 0.80469 0.0356 1.207 0.0547-0.18517-0.079-0.37547-0.14432-0.56054-0.22266 0.0253 0.0347-0.0347 0.0538-0.32618 0.0156-0.73267-0.0577-1.4649-0.0963-2.1992-0.1211-1.3046-0.0222-2.6112-0.0253-3.916-0.0293-0.37987-1e-3 -0.75927-9.2e-4 -1.1387-2e-3z" fill="#f00"/>
  </clipPath>
 </defs>
 <path d="m505.39 1283.7c9.6399 23.487 20.986 40.454-15.015 58.564-6.1078-13.807-6.7354-28.153-30.031-36.254 20.026 34.316-1.6497 52.142-60.062 66.931l-5.0052-2.7887c19.332-18.526 38.263-43.162-5.0051-55.776l5.0051 19.522-30.031-5.5776c8.0377 7.6887 29.314 14.251 29.305 23.925-0.015 17.327-49.668 26.298-74.351 24.717-52.336-3.3521-98.849-24.508-100.1-54.22h-5.0051v13.944l-15.015-33.466h-5.0051v22.31c-19.252-10.505-14.609-22.45-10.01-36.254h-5.0052c-23.052 30.448 10.332 48.726 40.041 72.508-19.084-7.1756-89.131-43.538-109.14-26.666-20.534 17.318 48.344 55.092 63.665 68.972 36.013 32.626 22.623 90.178-19.592 116.65l-30.031-36.254c-47.469 4.2975-110.8 20.509-123.52 50.198-5.3903 12.58 5.3939 26.605 8.3998 39.043 23.821-8.6397 4.2221-20.698 11.675-33.465 9.1622-15.695 38.176-28.962 63.402-36.254-14.849 28.116-54.332 47.917 0 72.508-1.3279-25.01-14.839-34.838 10.01-58.564l37.005 45.697 48.252 13.21 94.927 70.69 100.06 29.96 19.843 35.657 49.387 55.776-13.891 61.353 24.79 39.043h5.0051l-12.663-47.409 28.621-61.353-25.968-30.677c69.016 38.591 3.3759 95.942 85.087 128.28-3.3434-16.487-26.772-27.746-29.505-44.62-3.6388-22.461 19.06-44.852 13.674-66.878-5.5707-22.807-44.338-16.908-24.21-44.674 65.742 62.759 119.12 124.38 215.22 175.58 48.87 26.039 127.08 43.405 120.12 83.772l-65.067-30.677-10.01 11.155c-29.26-2.3593-37.238 12.404-48.83 25.099-22.663 24.82-37.228 48.385 13.794 66.931-2.7428-28.239-32.618-57.452 30.031-75.297-8.2985 31.43-23.329 50.078 35.036 69.72l-25.026-58.564c20.706 10.084 35.456 29.076 60.512 35.604 18.559 4.8358 35.992-2.4568 54.606 4.6991 39.495 15.188 64.911 36.6 110.11 48.068 37.704 9.5627 99.187 1.7542 129.07 16.024 17.603 8.4053 23.754 22.09 38.75 31.77 26.217 16.928 62.078 25.618 76.964 47.895 23.569 35.281 2.122 64.334 65.537 89.241l-36.042-44.62-3.5588-60.77-40.481-25.682c17.198 5.5998 38.57 9.9364 49.356 19.814 35.907 32.885 13.339 79.525 100.8 88.948-14.77-14.875-44.276-22.494-55.627-39.043-13.854-20.199-5.0852-44.018-19.61-63.977-14.92-20.503-57.409-9.4819-44.886-39.208 104.94 53.857 262.93 117.26 410.42 125.5l5.0052 36.254c-24.345-0.1114-67.204-8.7874-87.995-0.2872-14.765 6.0377-17.203 19.031-21.537 28.175-14.33 30.216-18.364 50.714 39.46 66.931-3.6837-13.302-22.914-20.849-28.434-33.465-2.7328-6.2442-1.3815-13.319 0.996-19.522 16.442-42.947 78.45-20.796 132.55-16.733-7.4474 11.97-27.543 25.989-22.253 39.043 8.9491 22.084 77.81 84.199 117.35 47.409l-30.031 5.5776h-5.0051c-26.552-18.584-98.276-76.532-5.0052-84.093 20.766-1.6844 50.142 11.52 70.072 15.082 41.983 7.4991 82.64 7.9118 125.13 2.0805 3.4936 37.428 69.121 31.382 102.28 56.068 36.547 27.205-15.036 63.972 67.89 72.216l-37.869-27.902-6.6469-54.984-65.597-31.455c33.624 17.087 83.43 22.608 112.46 42.091 45.271 30.398 32.368 71.917 112.78 86.193l-53.685-39.043-29.22-57.789-56.883-25.916 9.655-33.424c53.42 8.5699 102.82 25.414 155.16 36.106 66.408 13.562 135.68 20.894 205.21 27.347 30.686 2.8474 103.72-0.2872 100.1 22.999-66.138-17.238-90.177-9.4902-155.16 4.3951-37.578 8.029-59.026 31.625-15.015 45.803-10.381-60.229 104.41-44.021 170.17-33.465v2.7888c-19.815-2.2785-69.536-15.163-87.074-8.1767-11.552 4.6014-8.5086 17.985-10.146 24.909-7.7279 32.676-2.3523 57.159 62.184 66.931-12.893-20.051-80.923-44.916-37.889-71.028 17.023-10.33 77.755 16.256 97.93 18.997 23.764 3.2293 37.058-9.7301 60.102-8.0737 69.031 4.967 116.21 23.136 190.18 15.483 4.2642 9.0998 28.719 23.518 26.182 31.909-2.6077 8.6006-34.355 10.806-46.202 12.711-42.243 6.7934-82.825 12.867-110.11 33.465 25.942-0.4685 37.483-8.1182 60.257-13.252 40.742-9.1778 140.83-7.9786 154.96-34.157-29.03-8.7038-29.666-29.815 8.5787-34.185 16.457-1.8796 82.394 15.999 101.53 20.116 80.402 17.29 78.065 75.679 175.18 83.789l-67.019-33.714-48.069-51.863-68.74-23.479 3.6437-30.384c135.81 15.612 258.01 16.733 395.41 16.733v33.465c-22.743 3.051-86.414 0.99-99.497 12.728-8.689 7.7946 5.1252 21.401 9.2244 29.104 16.482 30.972 25.846 45.572 90.272 47.409-8.1633-14.396-30.081-11.077-47.454-20.406-23.619-12.681-27.538-29.33-27.623-46.525l115.12 5.5776c-13.033 7.3233-36.157 17.028-39.16 27.888-3.0681 11.108 21.887 21.036 34.155 27.888 44.901 25.068 69.04 30.311 130.13 19.522v-2.7888c-21.472-2.8167-44.631 0.9482-65.067-2.8836-101.25-18.986-44.791-61.442 25.877-76.348 43.93-9.2671 97.92 1.5283 144.3-7.2202-11.657 27.378 34.826 31.65 34.756 52.697-0.08 25.06-133.8 24.151-67.96 60.756 7.2023 4.0047 13.819 4.964 23.194 6.4645-3.2883-6.8355-14.66-15.168-14.074-22.188 1.6515-19.951 87.119-23.415 105.86-39.64 21.182-18.342-55.172-23.615-1.692-41.358 6.4019 13.063 26.352 30.953 17.623 44.62-23.409 36.645-96.133 47.228-102.71 92.03 31.022-5.4603 40.071-35.883 62.014-49.713 20.361-12.834 65.687-20.026 76.113-36.781 8.4837-13.629-13.794-24.274 2.062-38.99 35.462-32.913 79.827-43.558 80.037-86.463 61.783-0.2845 124.89-9.7887 185.19-16.741 33.71-3.8876 64.696-7.87 85.087 11.163-49.891 14.064-4.7396 46.241 40.041 41.832l5.0049-36.254-55.056-25.099c29.395-19.597 63.46-1.8601 78.265 16.733 17.107 21.488 14.715 47.225 27.038 69.72 6.0212 10.991 24.95 24.728 23.699 36.254-3.8339 35.351-106.3 51.52-154.03 41.832v-5.5775l5.005-2.7888 20.021 2.7888 5.0051-2.7888v-5.5775l-45.046 5.5775c0-15.74-2.7579-33.582 13.654-47.368 23.469-19.717 62.169-20.366 76.438 2.747l-15.015 2.7888c25.005 22.522 45.512-10.168 18.624-23.889-37.378-19.078-92.24 4.2249-109.12 23.889-27.373 31.884-8.9242 71.864 40.466 93.731 49.936 22.104 115.12 20.609 175.16 20.609 125.52 0 249.34-10.045 375.38-8.3245 60.707 0.8283 136.75 14.778 195.2 1.4 106.21-24.318 16.307-91.461-50.046-107.42 62.564-51.724 62.865-107.86 65.067-167.33h5.0054c14.65 21.217 42.033 34.48 80.082 41.832l-60.062-33.465 45.046 8.3663-65.067-25.099h45.046c3.2433-9.5991 12.518-23.866 4.4194-33.162-8.1132-9.3145-64.856-22.815-81.484-16.415-12.978 4.9947-11.917 22.196-13.028 30.055-58.405-6.0377-126.62 2.4346-150.15 36.254h-5.0054l-5.0049-64.142c29.896-6.1241 19.125-21.368 40.782-31.909 29.6-14.404 133.64-5.0031 129.39-32.233-19.41 3.037-33.79 11.47-55.076 10.809-59.025-1.8323-147.31-31.034-202.83-0.6107-17.943 9.8331-19.555 35.25-28.784 48.366-12.628 17.96-30.691 24.826-13.619 44.621l-70.066-0.3067-65.072-19.215 5.0054-13.944-15.015 8.3663c-39.396-12.575-61.268 2.2255-100.1 9.2867-65.032 11.824-133.17 20.974-200.2 28.504-151.31 16.995-305.85 31.929-460.47 31.929-49.996 0-112.1 5.4465-160.16-3.1596-48.084-8.6117-110.39-42.638-150.15-60.982 22.668 1.043 38.745 1.1461 55.056-8.3664l-90.092 2.7888c23.599-14.281 62.844-15.988 90.017-28.805 54.126-25.528 116.92-117.73 35.111-144.1l20.02 19.521-65.067-16.733v2.7888c31.507 10.795 66.223 21.315 60.062 44.62l-65.067-13.944v2.7888c62.589 14.63 63.06 38.446 40.041 69.72h-5.0051c-14.625-25.004-27.253-36.645-75.077-41.832l30.031 11.155-30.031 16.733c78.205-6.9832 68.61 33.744 15.01 53.073-47.439 17.106-78.19 10.751-125.12-0.086l15.015 11.155-55.056-19.521 25.026 19.521-50.051-25.099h-5.0051c15.631 33.354 72.249 36.251 125.13 36.254v2.7888c-16.552 2.2728-33.319 3.7732-50.051 5.5775l-30.026 3.0259c-21.792 2.2506-53.02 16.158-18.884 25.16 36.302 9.5739 90.873 3.157 123.79 15.327 36.928 13.657 63.225 48.77 80.282 70.827-96.214 12.764-204.88 3.5222-300.31-7.1143-42.414-4.727-85.578-4.674-105.11-29.14l30.031 5.5776c-32.478-21.68-79.692-17.583-125.13-19.996-73.305-3.8875-157.33-11.244-225.23-27.712-71.674-17.385-124.27-55.804-205.21-63.844v-2.7888c21.958-0.1114 37.458-0.3569 50.051-11.155h-90.092c23.739-11.554 58.955-11.152 85.087-21.331 56.763-22.109 78.36-56.685 87.209-93.009 4.8299-19.831 3.6438-43.148-32.153-52.987l20.021 22.31-60.062-19.522v2.7888c31.087 11.833 63.916 24.399 50.051 47.409h-5.0051l-55.056-19.522c33.865 28.922 78.966 39.598 25.026 75.297-8.8991-23.964-21.647-41.179-70.072-41.832v2.7888l30.031 5.5775-30.031 16.733c77.68-5.3183 62.028 35.122 10.01 52.359-51.768 17.157-82.354 8.6202-130.13-4.95l15.015 13.944-50.051-22.31 20.021 19.521c-23.75-4.5401-35.071-12.499-45.046-25.099h-5.0052c10.396 31.962 65.352 36.854 115.12 39.043v2.7888c-24.11 2.4959-107.34 0.5382-113.23 17.092-6.1012 17.126 39.27 17.023 58.175 20.877 25.561 5.2094 56.212 5.1676 80.082 11.891 41.668 11.738 70.137 36.999 100.1 56.113-119.31-8.4471-236.13-22.282-345.35-50.812-34.711-9.0663-88.436-15.81-100.1-38.43l25.026 5.5776c-24.61-28.713-96.639-30.116-145.15-39.046-61.413-11.303-139.4-25.676-189.74-48.882-57.934-26.7-100.57-68.32-175.63-82.188v-2.7888c22.548 2.3314 46.418 6.1353 55.056-8.3664l-85.087-8.3664c98.801-13.107 173.38-24.756 206.61-86.452 10.01-18.598 25.091-46.807-11.407-58.564l15.015 22.31h-5.0051c-11.267-13.085-24.17-21.641-50.051-25.099 22.663 18.144 46.998 29.382 40.041 52.987h-15.015c-8.8892-12.672-20.846-19.566-45.046-22.31 39.07 29.358 50.697 46.185 0 75.297-7.843-23.543-6.1814-43.084-55.056-50.198l25.026 11.155-35.036 11.155v2.7888c73.726 0.4852 52.644 39.146 0 51.963-57.944 14.111-91.664 1.0123-135.14-18.498l10.01 16.733-45.046-27.888 20.021 22.31c-23.139-7.0138-33.66-16.613-40.041-30.676h-5.0051c5.1903 32.11 50.452 42.345 100.1 50.198v2.7887c-25.136-0.01-105.93-11.565-116.81 5.9486-9.2246 14.845 44.661 24.313 61.753 29.667 73.891 23.138 123.48 48.815 155.16 95.457-116.46-15.02-245.9-48.009-335.34-92.169-30.972-15.294-76.728-30.833-80.082-55.636l25.026 8.3663c-22.498-39.235-143.14-62.24-200.21-86.098-92.094-38.508-154.27-95.982-220.23-148.16 19.805 6.7042 39.445 12.048 55.056 0l-80.082-22.31c99.277 10.422 185.1-3.8317 238.56-55.776 19.42-18.874 34.636-37.794 16.702-58.564h-5.0052l5.0052 25.099h-5.0052c-5.7609-15.296-13.724-26.457-40.041-33.465 14.315 21.08 45.777 38.641 10.01 58.564l-40.041-30.677c22.924 30.824 34.796 53.759-30.031 72.508 1.9522-25.328 10.03-41.129-35.036-55.776l15.015 19.522-35.036 2.7888v2.7888c45.762 5.5664 56.128 25.712 14.815 41.528-55.747 21.34-130.64 4.7298-154.96-27.584h-5.0051l5.0051 16.733-35.036-30.676 10.01 22.31c-19.885-10.469-24.455-21.318-25.026-36.254h-5.0052c0.045 36.43 33.649 45.51 80.082 66.931-22.658-4.1079-107.66-28.027-121.31-10.489-11.427 14.669 30.626 27.483 46.237 35.518 17.588 9.0496 41.868 15.218 56.873 25.531 28.249 19.413 36.292 48.695 48.234 72.146-110.33-53.662-209.1-101.82-276.5-175.69-20.376-22.333-52.274-46.765-48.83-72.508l20.02 11.155h5.0052c-11.597-47.702-116.51-89.051-165.04-128.28-59.983-48.491-74.845-107.61-115.25-161.75 17.041 8.0262 28.014 11.601 50.051 8.3664l-65.067-36.254c87.353 25.417 170.27 24.996 250.25-10.232 31.636-13.933 63.264-32.93 55.06-56.699h-5.0051l-5.0051 19.522h-5.0052c-0.55557-14.867-3.7288-26.466-25.026-36.254m-250.26 108.76-5.0051 2.7887 5.0051-2.7887m195.2 334.65-5.0051 2.7888 5.0051-2.7888m765.78 382.06-5.0051 2.7888 5.0051-2.7888m1271.3 131.07-5.0051 2.7888 5.0051-2.7888m-385.4 5.5775-5.0051 2.7888 5.0051-2.7888m2467.5 86.452c-22.803 23.225-76.238 22.994-105.08 42.233-11.502 7.6692-32.248 19.508-15.041 27.486l-5.005 8.3663c-22.233-9.1221-36.337-21.524-53.385-33.465-37.634-26.362-90.287-53.043-151.83-59.058-50.992-4.9863-98.796 9.4122-100.1 39.537l-240.25 22.31c6.5664-11.582 19.31-13.308 40.041-13.944l-85.087-7.7668-315.32-11.755c30.056-7.0276 68.22-0.028 100.1 0 66.143 0.056 134.33-2.5433 200.21-6.0516 120.77-6.4282 242.64-17.918 360.37-34.316 50.992-7.103 128.73-29.921 180.18-27.556 31.687 1.4556 35.151 20.347 56.623 28.434 36.637 13.796 89.391 25.478 133.57 25.545m365.37-19.521 5.005 5.5775-5.005-5.5775m-725.74 78.086v30.677h-5.0049l-5.0051-30.677h10.01m-20.02 30.677-25.026-27.888c23.124 4.2362 24.06 15.548 25.026 27.888m735.75 111.55c-16.887-4.7047-27.368-8.8349-35.036 2.7888l20.02-2.7888c-1.2563 15.196-23.218 14.173-45.046 10.143-37.148-6.8576-63.49-21.39-80.082-40.819 17.283-4.5819 36.057-15.536 55.056-16.783 40.136-2.6298 76.919 29.458 85.087 47.46m-520.53-22.31c-0.8158 38.29-73.651 17.792-110.11 5.5775 24.054-28.382 67.76-8.6285 110.11-5.5775m375.38 11.155c-45.737 14.488-99.106 16.434-150.15 11.155v-16.733c40.572 0 131.59-19.095 150.15 5.5776m-170.17-2.7888 5.0051 13.944c-49.576 14.555-194.2 27.327-195.2-19.521l190.2 5.5775m-215.22 22.31c-6.1065 18.858-24.345 34.032-60.062 36.254v-11.155h15.016l-10.01-8.3664h-5.0051l-15.015 22.31c-63.035 0-142.62-4.3588-175.18-39.043l75.077-3.0815 60.062-14.429 115.12 17.511m525.54 13.944c-46.898 36.201-141.79 19.527-210.22 19.522-1.5417-11.403-6.5069-17.109-25.026-22.31l15.015 11.155c-28.134 14.792-51.848-7.9816-60.062-22.31l95.097-1.2661 60.062-7.7304 125.13 22.94m-300.31-11.155 30.031 27.888-270.28 8.3663 35.036-39.043c77.249 11.749 126.74 12.812 205.21 2.7888z"/>
 <path transform="matrix(4.361 0 0 2.1275 -1166.2 -509.37)" d="m392.7 370.28h78.667c0-12.36 0.7293-24.233 4.9306-36 9.092-25.457 39.695-43.011 59.697-17.328 12.891 16.551 13.615 43.104 8.8413 62.661-14.837 60.784-70.787 113.54-108.42 161.33-11.176 14.195-28.656 30.048-35.801 46.667-6.2186 14.464-1.2506 40.291-1.2506 56h234.67l-0.804-34.267-16.529-15.293-17.333-14.969-30.667-0.804h-69.333c13.675-16.044 24.871-34.729 36.96-52 5.132-7.332 14.649-16.593 16.835-25.333 1.4534-5.8187-2.192-13.08-3.6213-18.667-2.9027-11.34-4.8373-23.016-5.9467-34.667-3.064-32.169 2.3107-65.896 13.673-96 7.708-20.423 18.417-40.219 32.033-57.333 4.296-5.4013 15.548-13.856 10.744-21.332-13.457-20.944-44.396-29.396-67.344-32.377-80.132-10.407-139.95 51.132-140 129.71m530.67 106.67h-57.333c-7.196 0-18.243-2.072-24.933 0.804-9.452 4.0653-17.085 18.009-25.733 24.317-25.327 18.476-59.82 21.171-88 7.7853-77.208-36.673-61.411-159.87 26.667-168.68 26.252-2.6267 50.845 5.3813 70.661 22.824 6.34 5.5813 11.557 18.137 19.107 21.477 6.5947 2.9173 17.775 0.804 24.899 0.804h57.333c-9.5666-29.399-23.347-57.343-46.667-78.44-92.343-83.541-248.77-41.339-276.77 83.773-5.0493 22.568-5.52 45.248-1.5667 68 12.639 72.743 76.528 130.82 150.33 135.88 58.937 4.0387 117.75-22.403 151.11-71.881 9.088-13.483 19.449-30.112 20.895-46.667m-224-66.667v44h5.3333v-18.667c14.581 1.112 3.384 16.689 14.667 18.667v-44h-5.3334c0 8.6347 1.464 17.833-9.3333 18.667v-18.667h-5.3333m24 44h6.6666c1.008-7.288 2.8827-11.407 10.667-12l1.3333 12h6.6667l-7.5347-33.333-5.5866-9.4387-4.7774 10.772-7.4346 32m26.667-44v44h5.3334v-18.667c10.36-0.912 21.337-12.173 11.421-22.088-4.2507-4.2507-11.276-3.2453-16.755-3.2453m22.667 0v44h5.3333l1.3334-20c10.784 1.5653 18.035-10.653 11.196-19.803-4.0787-5.4547-11.887-4.1973-17.863-4.1973m21.333 0c6.8427 16.431 12 25.788 12 44h5.3334c0-18.099 4.992-28.147 13.333-44-8.8987 0.67733-11.516 7.1027-14.667 14.667h-2.6666c-2.18-7.5693-4.8174-14.009-13.333-14.667m49.333 0c0 9.8747-5.212 42.017 6.6666 44v-24h1.3334c1.3986 8.1213 4.7866 21.325 13.333 24v-44h-5.3333v24c-4.2747-8.0253-5.7974-22.336-16-24m25.333 0v44h18.667v-5.3333h-12v-13.333h12v-6.6667h-12v-13.333h12v-5.3333h-18.667m22.667 0 9.3333 44h5.3333l5.3334-26.667h1.3333l5.3333 26.667c10.833-3.5613 12.015-33.753 14.667-44h-6.6667l-5.3333 25.333h-1.3333l-5.3334-25.333c-8.2533 2.7133-8.9973 17.64-9.3333 25.333h-1.3333l-5.3334-25.333h-6.6666m60 0c6.0613 16.655 12 25.66 12 44h5.3333l12-44c-8.1413 0.64666-10.772 7.6293-13.333 14.667h-2.6667c-2.1427-7.424-4.984-14.007-13.333-14.667m32 0v44h17.333v-5.3333h-12l1.3333-14.667 10.667 1.3333v-6.6667h-12v-13.333h12v-5.3333h-17.333m21.333 44h6.6667c1.008-7.288 2.8826-11.407 10.667-12l1.3334 12h6.6666l-7.72-33.333-5.4013-9.4387-4.7773 10.772-7.4347 32m26.667-44v44h5.3333v-18.667c10.353 1.6173 9.3333 10.076 9.3333 18.667h5.3334c0-9.6347 3.6946-35.687-4.304-41.863-4.164-3.2133-10.765-2.1373-15.696-2.1373m-276 18.667v-13.333c11.124 0.85867 11.233 12.476 0 13.333m22.667 0v-13.333c11.304 0.86267 11.304 12.471 0 13.333m266.67 0h-8v-13.333c8.612 0.66533 9.348 5.7 8 13.333m-308-1.3333 1.3333 8h-4l2.6667-8m281.33 0 1.3334 8h-4l2.6666-8m-113.33 294.67 57.333-1.3333c0-14.267-2.7746-31.969 3.1507-45.333 8.6373-19.477 35.064-24.173 50.043-9.1933 16.907 16.907 17.725 75.587-1.2507 91.34-13.383 11.109-33.152 8.52-49.276 8.52v56c15.869 0 34.833-2.26 47.768 8.908 19.52 16.852 15.601 60.048 12.608 83.092-1.228 9.4507-2.604 18.216-9.7827 25.193-22.363 21.737-52.931 0.57866-53.255-26.527-0.16-13.329-0.01-26.669-0.01-40h-58.667c0 24.889-2.2027 50.565 5.18 74.667 18.475 60.312 108.85 77.824 153.43 34.547 28.915-28.068 25.385-69.808 25.385-106.55 0-30.859-6.332-72.56-41.333-82.667v-2.6667c32.881-9.676 41.333-49.088 41.333-78.667 0-33.953-1.98-69.425-30.667-92.709-48.879-39.673-136.04-16.804-150.1 46.043-3.7627 16.817-6.848 40.593-1.9 57.333m-260 9.3333h77.333c1e-3 -11.136 0.9707-22.688 4.4787-33.333 9.3347-28.335 41.724-46.991 62.455-17.333 11.348 16.233 11.397 42.84 6.74 61.333-14.933 59.291-69.143 110.58-105.95 157.33-11.273 14.319-31.656 32.043-37.6 49.333-5.3173 15.467-0.7853 39.639-0.7853 56h212l19.576-0.804 3.0906-12.529v-37.333l-3.0906-13.863-38.243-0.804h-93.333c16.628-24.644 33.212-49.928 51.549-73.333 32.356-41.3 66.877-83.215 72.672-137.33 2.888-26.975 0.9653-72.225-21.989-91.523-5.888-4.9507-16.028 1.472-22.232 3.5213-18.651 6.1627-37.889 8.5907-57.333 10.441-19.851 1.8893-42.073-1.4867-61.333-6.3-8.7453-2.1867-21.811-9.7267-30.661-8.7693-8.3254 0.9-14.901 14.213-18.656 20.629-13.424 22.928-18.683 48.353-18.683 74.667z" clip-path="url(#clipPath6856)" fill="#030304"/>
 <text transform="scale(1.4346 .69707)" x="1388.5481" y="609.76227" fill="#ff0000" font-family="'.Apple SD Gothic NeoI'" font-size="162.77px" font-weight="600" stroke="#000000" stroke-linecap="square" stroke-opacity="0" stroke-width="3.0568" style="paint-order:stroke markers fill" xml:space="preserve"><tspan x="1388.5481" y="609.76227" fill="#000000" font-family="'Bodoni 72'" font-size="162.77px" font-weight="bold" stroke-width="3.0568" style="font-variant-caps:normal;font-variant-east-asian:normal;font-variant-ligatures:normal;font-variant-numeric:normal">Happy new year</tspan></text>
 <path d="m888.58 1049.5c35.389-8.7551 66.814-20.182 106.98-24.953v-0.8604c-7.2728 0-14.662 0.1495-21.792-0.5885-42.149-4.3608-20.527-23.61-9.9057-34.69-11.423 2.1838-18.436 5.4536-23.773 10.325h-1.9811c-2.5478-15.665 25.495-28.451 59.434-32.697v-0.8604c-36.372 0.68837-50.614 12.475-77.264 20.651-16.582-22.919 55.058-34.416 93.113-41.543 91.237-17.087 193.56 10.88 263.49 35.176 21.535 7.4834 52.851 16.035 67.897 26.159 4.0633 2.7337 10.708 12.627 0.8123 14.526-7.1737 1.3767-16.398-3.8498-21.162-5.5207-13.468-4.7247-28.148-7.8164-45.566-8.146v0.8605c29.184 4.0123 58.847 16.478 61.415 30.116l-25.755-6.8836c8.2495 6.2942 55.258 31.46 5.9434 30.038-7.3638-0.2128-14.49-1.2159-21.792-1.6427v0.8605c27.52 4.07 49.766 10.094 73.302 17.209-0.9133-19.211-15.696-38.388-6.6051-57.65 3.7582-7.9651 17.155-12.55 22.993-19.79 5.3373-6.6194-10.024-7.2063-12.558-12.225-1.7077-3.3815 6.3613-6.8828 14.009-5.9724 28.701 3.4177 35.391 25.878 40.005 36.267 16.378 36.878 39.284 71.821 84.798 104.11h1.9812c-20.665-31.396-51.842-60.332-64.882-92.929-8.392-20.981-7.3203-50.151-44.264-66.175-22.498-9.7566-56.219-8.744-85.004-12.027-54.473-6.2133-120-19.129-148.58-41.401h-1.9811c1.4482 29.512 78.986 36.543 128.77 45.846 17.616 3.2912 53.802 8.9151 56.456 18.688 1.2382 4.5612-8.814 8.5538-18.815 7.0084-19.92-3.0779-38.026-9.1518-55.472-14.179-41.346-11.913-84.192-22.917-126.79-33.959-23.286-6.036-50.951-13.282-79.245-12.072-38.757 1.6562-74.387 14.814-106.98 23.085 5.5729-10.461 15.445-21.376 26.488-30.976 12.667-11.011 18.47-25.559 38.969-34.381 21.299-9.1663 56.191-9.1542 83.128-5.4183 56.022 7.7695 101.19 26.353 156.51 35.66 35.771 6.018 72.577 10.918 108.96 16.186 29.921 4.3315 57.116 7.8784 75.786 19.79 33.027 21.072 31.454 47.234 39.658 71.417 12.037 35.492 29.612 74.77 68.801 106.7 1.0757-5.1215-6.2446-11.342-9.1648-16.349-6.6268-11.367-11.802-22.82-15.756-34.418-10.308-30.246-8.7586-60.696-8.7586-91.208 0-16.515 1.0758-35.646-27.766-48.172-29.265-12.711-74.308-16.022-112.89-20.212-41.695-4.5274-80.511-11.259-118.87-19.594-55.254-12.007-105.62-26.236-166.41-32.806-22.189-2.3979-54.442-4.9961-75.253 0.51452-17.333 4.5892-18.407 13.547-22.24 21.318-4.6259 9.3815-12.822 18.818-21.987 27.534-14.383 13.679-30.88 28.546-52.405 40.404-10.171 5.604-32.071 7.3215-36.98 14.668-4.4278 6.6246 3.0886 13.561 7.3421 19.787 5.1015 7.4669 7.3202 15.494 9.0161 23.232 3.4472 15.733-14.1 28.288-27.399 42.162m118.87-12.907c44.478-8.0428 73.874-10.941 120.85-4.3023-22.668-31.111-100.27-21.896-120.85 4.3023m178.3 6.0231c39.308-2.1581 63.975 3.4238 95.094 12.907 0-7.7638-0.172-15.475-14.234-21.228-24.271-9.9296-69.999-5.5542-80.86 8.3214m-103.01 6.6651c-26.369 4.2729-17.22 28.384 11.871 23.669 26.319-4.2654 17.006-28.349-11.871-23.669m-217.93 45.822 1.9812-3.4418c-24.021-4.8684-35.387-22.703-11.778-30.599 16.368-5.4759 28.423 4.9596 29.608 10.809l11.887-6.8836c-10.544-3.502-17.83-9.5337-31.698-10.843-18.686-1.7639-31.268 5.2609-33.315 12.564-3.0311 10.824 7.1183 25.015 33.315 28.395m340.68-32.722c-15.986 1.504-19.623 18.347-1.9812 16.468 14.225-1.5153 19.251-18.094 1.9812-16.468m-350.58 3.4667c5.0678 1.8294 16.863 5.6377 10.504 8.9496-4.7488 2.4747-16.107 1.7906-12.35 6.505 3.0668 3.848 12.364 4.7876 18.383 1.6237 12.756-6.7063 6.3554-19.356-16.537-17.078m106.98 67.115v-0.8604c-24.824-0.2227-55.196-3.5949-65.142-14.628-14.201-15.752 11.378-42.435 57.217-37.86-19.175-8.4101-49.827-7.0489-66.707 1.7243-36.433 18.935-28.804 54.924 38.971 55.064 13.408 0.028 23.845-0.524 35.66-3.4409m429.9-32.697-1.9812 3.4418h1.9812c4.2278-3.8213 5.4323-7.2149-3.9623-9.465l-1.9812 2.5814h-3.9622c-10.997-13.106 17.038-13.199 21.584-0.9372 2.0981 5.6584-4.8934 10.546-9.6975 15.565 18.71-6.3767 30.295-35.153-9.8959-31.364-25.967 2.4472-12.873 18.876 7.9147 20.179m-267.45-12.907c-11.324 1.4672-23.855 0.9845-33.307 4.6413-20.998 8.1254-7.3896 22.915 13.497 28.159 27.95 7.0178 69.213 6.5351 99.054 2.1717 27.151-3.9692 51.977-17.487 21.792-27.228 9.6977 9.1139-2.6566 17.188-23.774 20.627-25.071 4.0837-58.927 3.0133-81.226-3.8237-12.049-3.6949-23.572-10.66-13.262-16.803 3.5878-2.1383 19.165-5.6084 17.224-7.7441m217.92 9.4651v0.8604c45.421 10.263 27.938 37.103-13.868 43.022 73.114 13.325 90.363-43.791 13.868-43.883m235.75 28.395c25.755-7.2975 72.624-12.322 97.075-0.8605l-21.792-0.8604c14.795 10.147 29.467 16.12 29.717 29.255l-15.849-0.8606 13.868 20.651-27.736-3.4418c0.4932 10.369-0.3468 16.99-17.83 24.953l-9.9057-5.1628c-6.7596 9.1941-25.642 15.408-47.547 15.488 0-3.9348 1.058-8.626-6.4961-11.485-12.618-4.7771-33.754-3.1275-35.108 4.6019-21.135-4.0375-30.725-12.68-31.698-22.372-28.027 4.3935-21.858-7.1075-11.887-13.767-10.122 1.1505-19.93 2.0944-26.343 6.0602-16.562 10.242 7.1876 19.093 30.305 18.032-5.1867 13.541 30.319 19.32 55.472 19.79-1.5096-7.5514 14.752-2.528 11.887 4.3022 22.183 3.0537 52.599 2.652 61.415-8.6046h3.9623l3.9624 6.8836c31.809-4.0363 44.476-19.064 29.717-31.837l15.849 8.6046c25.412-2.2329 23.044-14.256 15.849-22.372l19.811 6.0232h1.9812c13.733-10.761 2.403-22.859-15.849-30.976l17.83 5.1627c-1.1251-5.389-6.5377-8.1605-17.83-10.325v-0.8604l19.811 2.5813c0-20.215-54.685-39.361-99.056-25.813l13.868-5.1629c-35.222-6.4197-52.454 10.849-57.453 22.372m-731.04-14.628c-10.28 5.5404-21.125 11.264-26.65 18.069-24.897 30.666 72.026 39.581 121.74 39.581l-27.736 9.4649c27.227 7.0833 69.762 0.5463 99.056 0l-5.9434 7.744c41.445 0 88.804-0.9334 118.5-15.492 21.771-10.672 39.559-33.81 4.3288-42.706-64.058-16.176-136.23 14.797-200.09 16.002-28.96 0.5464-71.949-3.2628-84.232-16.315-5.6878-6.0447 2.2368-10.575 1.0242-16.348m598.3 10.325c-0.4855 25.473-76.402 33.752-122.83 25.545-31.381-5.5481-56.181-17.482-89.151-21.427-17.063-2.0427-40.318-1.0643-55.47 2.9496-26.418 6.9973-19.286 22.862-9.4976 33.373 19.724 21.181 74.374 27.534 122.42 27.534l-3.9623-7.744c32.152 3.9331 62.166 4.3419 95.094 4.3022v-0.8603l-23.774-7.7442c25.438 0 53.282-0.6935 75.283-6.9765 35.965-10.271 38.574-34.911 11.887-48.953m71.321 1.721 1.9811 0.8604-1.9811-0.8604m-681.51 44.743c-2.7478 11.233-3.3798 22.682-11.384 33.558-19.191 26.077-73.714 50.289-131.26 61.199-18.884 3.5803-38.977 3.9598-57.451-0.4654-7.6669-1.8363-17.61-5.6644-14.294-9.9495 4.834-6.2427 22.189-1.5669 12.311 3.4246v0.8605c21.792-0.7306 19.373-13.909 3.9245-18.062-21.216-5.7031-47.219 0.5067-52.404 10.318-3.7451 7.0858 1.5342 13.567 8.857 19.79-9.1308-4.8262-13.934-10.176-15.849-16.349-11.554 4.4132-9.6832 10.305-7.9246 16.349h-1.981l-5.9435-7.7441h-1.981c-4.136 23.587 42.61 37.666 93.113 38.631 61.651 1.1772 141.5-18.074 156.51-45.514h1.981c0 12.289-3.1202 21.856-11.887 33.558 33.077-1.2547 61.764-13.42 67.358-27.535h1.981c-1.8444 18.664-19.964 43.437 12.539 59.294 25.37 12.377 74.33 15.535 108.31 21.589-8.9428-8.7162-24.812-16.036-33.955-24.953-27.524-26.843-43.426-57.886-26.718-86.906 8.4418-14.662 27.369-29.817 60.672-36.139v-0.8603l-83.207-2.5815c-8.0215 15.06-19.316 31.965-47.547 42.162l12.451-33.558-0.62013-16.272-35.605-13.844m316.98 11.186c-7.4174 4.8702-16.396 9.4597-27.736 12.692-6.6308 1.8905-16.202 2.2803-20.208 5.501-29.309 23.567-23.377 57.513-23.377 83.34 0 6.733-6.4921 22.397 3.9881 27.876 7.1301 3.7266 40.776 2.2399 51.484 2.2399l-9.9057-43.883h1.9812l20.952 31.837 13.378 10.912 64.725 4.5759c-6.3971-5.9664-19.062-10.87-27.678-16.349-21.794-13.858-42.529-30.324-45.623-47.325 55.892-1.0584 63.396-31.068 63.396-49.906-24.786-1.9206-48.112-12.777-61.415-21.511h-3.9623m289.24 3.4418-31.698 7.7441c5.3511 4.0828 14.773 6.9309 15.296 12.046 0.7686 7.4893-18.082 16.705-34.9 10.812-10.662-3.7344-11.55-10.462-12.095-15.975l-35.66 4.3021c4.4495 5.3108 12.097 9.9778 15.534 15.488 8.4 13.467 2.0881 26.633-7.6095 39.581 9.3489-1.4756 17.622-3.8205 27.736-4.2912 53.938-2.5082 32.889 39.644 65.407 49.29 14.431 4.2798 35.365 2.0219 51.48 1.5419 19.696-0.5852 39.66 1.3216 57.453 4.9913 24.15 4.9821 58.522 34.06 89.151 16.443l-11.887 0.8605v-0.8605c21.794-2.2526 27.05-14.613 1.9812-16.349 12.732 10.22-14.92 8.3912-12.98 0 1.2363-5.346 13.729-9.8787 18.924-14.628h1.9811l-3.9623 6.8835c48.993-12.568 2.7042-33.068-17.05-45.604-4.2614-2.7051-4.513-5.955-8.7052-8.6044l-7.9243 3.4418c5.7649-6.0386-0.547-10.684-15.849-11.186v0.8605c5.0638 2.4652 5.2321 5.7849-4.0019 6.5325-12.146 0.9836-27.213-2.6346-39.583-3.0132-29.652-0.9078-55.446 0.4336-83.207 5.0851 1.0598 3.1149 3.1005 10.082 10.736 11.492 7.2449 1.3388 19.391-1.3534 26.906-1.7786 19.742-1.1169 41.427 0.5214 54.699 7.5298 18.607 9.8264 4.1821 22.792-24.982 22.702-24.718-0.076-45.503-9.1605-58.049-17.574-10.058-6.7451-21.82-16.645-20.148-24.953 4.093-20.35 50.34-33.586 13.753-54.208-5.8702-3.3085-12.919-6.21-20.744-8.6045m-457.64 147.14h3.9622c17.989-12.482 52.437-18.666 85.189-19.79l-1.9812-23.232c-12.434 2.0435-23.518 6.1125-37.641 5.7865-19.881-0.4595-33.731-10.593-20.935-17.799 13.119-7.3878 36.31-7.7982 54.614-11.219l-5.9434-18.93c-14.583 2.6374-34.84 8.9996-51.507 7.3371-25.998-2.5925-16.241-20.618-1.8959-25.974 21.78-8.1322 44.807-3.4547 67.271 0.5679 0-12.724 5.5353-21.261 17.83-32.697-25.483 0.4766-51.92 3.15-77.264 4.6671-9.6619 0.5772-23.243 0.2493-31.514 2.7353-20.023 6.018-27.486 21.676-32.574 31.318-17.802 33.742-4.2415 66.994 32.39 97.231m303.11-15.488c-4.8458-14.05-31.587-28.255-23.774-43.023h1.9811c2.2545 11.146 17.836 23.637 29.228 33.558 3.9326 3.4246 7.4848 8.3069 14.779 10.667 8.1662 2.6415 23.627 1.3792 33.257 1.3792 31.228 0 66.732 1.03 77.264-14.628-59.402 3.7928-118.14-18.65-120.85-45.604 51.135 0 54.824-18.334 44.318-36.139-2.8311-4.8005-6.6249-12.556-15.429-15.998-5.5908-2.1854-16.053-1.3544-22.946-1.0642-21.305 0.8948-48.748-1.5946-69.054 0.9876-7.8037 0.9921-8.0037 5.4458-9.4975 8.331-4.2793 8.255-6.833 16.58-9.458 24.953-5.1727 16.51-5.5373 34.304 0.6815 50.767 1.9118 5.0646 2.2288 13.698 11.08 17.511 12 5.1678 42.176 7.3911 58.418 8.3025m-110.94-92.068-5.9434-0.8604c-7.3281 5.5026-27.837 7.4274-38.602 2.2423-7.6452-3.6819-3.1421-7.5531 6.9043-8.2655l-3.9623 3.4418c4.1564 0.067 10.946 0.082 10.062-2.6648-0.8855-2.7475-12.658-4.5492-10.553-7.3904 5.3747-7.2622 30.959-4.0141 39.561-0.586 9.4678 3.7732 6.3733 9.5071 2.5338 14.083m124.81 12.907-3.9622-1.7209c-4.2396 3.7438-10.48 5.2891-19.811 6.0231l1.9811-3.4418-21.792-1.7209 3.9623-1.7209c-2.6864-3.447-7.0152-9.2833-0.2811-12.388 5.3173-2.4505 36.568-2.7208 41.53 0 6.5912 3.6148 0.8777 11.098-1.6265 14.969m49.528 29.255h9.9056v0.8605c-17.418 1.1392-25.598 5.3796-25.755 12.907h1.9811l3.9623-1.721c0.6637 12.312 45.237 31.767 71.321 18.93-13.61-1.4207-32.283-6.7838-22.302-13.764 4.2138-2.9472 14.45-4.6723 16.958-7.9274 3.1559-4.0942-5.2203-11.04-6.5437-15.308-17.016 0-37.901-0.1927-49.528 6.0233m-778.58 4.3023-1.9812 0.8605 1.9812-0.8605m27.736 31.837 13.868 12.907c-47.852 3.5899-83.736 35.478-58.708 54.205 10.959 8.2 39.201 12.256 48.802 1.7243-33.928 3.8523-15.562-18.429 7.0944-6.7898 14.191 7.2898 3.1797 17.584 1.1749 25.72-2.8093 11.393 4.3446 23.733 12.919 34.418 48.46 60.393 165.96 114.91 313.62 127.35-1.2203-2.4144-5.2916-9.631 6.0028-8.922 7.0865 0.4449 12.911 4.9942 16.978 7.2011 12.483 6.7736 25.481 13.208 40.415 18.973 38.036 14.682 80.485 22.444 128.77 28.352-11.405-13.531-29.717-21.8-29.717-36.999h1.9811c9.2222 23.26 63.802 47.398 105 60.98 14.928 4.9208 32.703 10.702 51.509 12.158-14.337-19.474-57.336-57.064-9.9056-73.138-7.0706 10.928-13.313 28.458 15.849 34.418 18.466-21.377 28.459-52.13 93.113-55.929l-23.774 15.488c74.269-1.3887 148.74-24.142 196.03-47.325 18.86-9.2438 41.122-21.673 43.684-34.418h1.9811l3.9622 15.488h1.9812c29.735-19.16 51.804-45.427 44.122-68.836-3.146-9.5828-7.9739-19.517-28.302-25.016-44.866-12.14-116.1-7.4807-152.09-25.754-19.318-9.8074-5.7275-24.22 15.433-31.378 9.8205-3.3213 25.715-6.6453 37.546-3.2586 25.481 7.2941-19.764 18.515-3.8752 28.617l5.9435-5.1628h1.9811c0.013 8.775 6.8704 15.465 23.774 20.651l-1.9812-6.8837h1.9812c15.586 13.013 73.973 18.014 95.79 5.1284 14.761-8.7182 8.6674-22.841-18.525-24.058 5.2658 5.4871-9.6165 12.556-16.061 5.9698-4.4198-4.519-0.063-9.9081 0.1821-14.574 0.5191-9.8538-7.6708-19.887-25.755-26.228-35.906-12.592-112.64-11.627-148.55 0.7504-20.19 6.9584-32.814 20.568-35.329 31.501-1.0363 4.4968-0.8817 9.3575 1.4203 13.767 16.087 30.818 123.63 23.296 147.69 50.767 12.968 14.808-29.085 33.632-50.424 43.019-67.289 29.603-165.77 53.258-263.46 49.91 11.924-8.9066 25.808-29.008-1.9812-35.278-22.19 33.39-116.05 35.79-180.28 31.044-145.01-10.711-265.74-59.209-316.14-117.95-12.392-14.442-18.537-33.362 0.081-47.325 19.75-14.813 61.381-24.911 91.768-9.4615 26.601 13.524-6.4565 33.093-43.161 24.95 2.8627 15.221 39.817 36.642 71.321 43.022 10.516-10.304 16.828-21.776 23.033-32.697 4.5664-8.0383 8.4297-16.655 8.6575-24.953 0.15233-5.5414-0.41595-11.027-4.3961-16.349-3.883-5.1894-12.596-9.4752-21.687-13.117-58.017-23.249-122.85-3.5211-187.87-1.5867-19.512 0.5798-36.009-1.6564-53.491-5.0863m459.62 32.697c-2.4962-2.7708-1.888-9.9573 9.6124-7.097 15.003 3.73-3.6888 10.694-14.415 10.632-15.059-0.088-28.895-5.5189-18.954-11.99 6.5318-4.2513 19.043-6.3173 29.699-7.8937-26.22-4.6446-72.244 10.049-41.237 20.823 15.16 5.2667 43.71 6.0387 58.645 0.2296 12.408-4.8262 14.361-14.809-3.5501-17.833-26.836-4.5293-53.865 12.317-19.801 13.129m65.377 78.301c-38.606-4.908-28.82 23.852 3.9622 24.85 26.5 0.8061 35.995-13.979 35.553-23.129-0.7152-14.835-28.604-24.703-57.346-30.116-7.031-1.3243-17.614-4.7197-25.547-4.1879-15.352 1.029-16.116 16.421-17.474 21.397-4.8854 17.931-9.0873 53.693 33.115 64.218 12.358 3.083 25.864 2.9067 39.623 2.8972 84.648-0.059 120.63-48.57 83.207-77.441l11.887 2.5812c-7.6888-24.66-87.978-11.184-118.04-27.571-29.178-15.907 28.506-34.352 62.536-24.182 19.843 5.9318 5.1113 19.816-17.798 19.012-22.947-0.8053-10.324-9.7533-1.9832-13.722-24.841-3.1821-43.302 7.6588-28.324 17.196 16.012 10.195 53.934 9.7491 71.463 0.8606 12.354-6.2641 13.598-16.354 18.068-24.08 3.9068-6.751 11.936-12.565 18.038-18.93-33.616-3.7774-82.169-8.9522-112.92 0.6788-18.686 5.8529-30.202 16.66-36.788 25.995-4.4893 6.3648-10.298 14.096-4.5388 20.65 9.028 10.274 43.418 11.357 63.111 16.24 39.026 9.6756 43.448 32.743 22.747 49.155-30.961 24.547-90.096-4.5991-76.129-24.093 11.912-16.626 60.218-8.2914 50.54 6.8802-5.9414 9.3152-35.559 4.3186-16.97-5.1594m118.87-89.487c-9.343 17.539-21.517 33.375-41.604 49.046l41.604-1.7208c0 22.546 3.8057 45.794-7.2549 67.976-4.8182 9.662-18.983 17.453-24.443 26.674 32.899 7.4137 27.076 21.918 25.755 35.279 27.13-8.3748 34.89-26.896 37.79-40.441 6.5497-30.6-4.5288-59.122-10.054-89.487l106.98 2.5813c-9.9374-18.826-4.0951-30.918 7.9244-49.046l-136.7-0.8604m-392.26 129.07c5.8602-7.9609 10.544-16.063 15.849-24.093 6.5912-9.9742 12.653-20.007 18.054-30.116 1.1945-2.237 5.1093-10.369 14.252-6.2279 6.4585 2.9247-3.9286 15.35-5.3906 19.135-4.3208 11.19-8.0216 22.457-13.466 33.558-1.8365 3.749-9.5708 10.08-6.8012 13.767 5.0162 6.6762 28.213 12.24 42.88 13.767-6.0385-10.647-3.9623-21.812-3.9623-32.697 0-33.244 12.959-65.567 45.566-95.51l-33.679-2.5814-13.868 34.418-15.849-1.7209 10.746-25.814 2.8885-9.9657-25.521-5.5224c-2.516 25.443-19.827 52.167-35.66 76.58-37.354-11.798-75.792-24.378-92.984-43.883-6.5595-7.4413-11.962-18.742 6.1812-24.181 17.073-5.118 20.204 3.7559 13.501 8.6932 22.43-0.229 40.124-11.826 19.548-19.42-9.8918-3.6502-24.059-2.9032-35.397-1.1402-38.761 6.0274-41.112 26.438-33.441 41.211 15.778 30.389 62.869 65.831 126.55 81.743m174.34-106.7c6.9241 22.336 17.178 41.927 4.1704 64.534-5.4006 9.3858-12.879 19.356-33.887 24.093 15.578 11.706 44.56 23.87 73.302 29.255-29.442-33.148-22.664-81.825 1.9812-115.3l-45.566-2.5814m-33.679 135.09c-42.852-5.5284-40.865-39.526-41.604-55.069h1.9811c9.1588 19.222 30.42 47.353 67.36 59.776 55.073 18.52 155.96 15.127 180.28-15.893-37.879 5.8855-80.945 9.698-120.85 4.4992-59.89-7.8026-95.728-35.021-116.89-58.708 57.191 6.9799 65.446-17.305 65.377-36.139-0.031-8.3886-1.8306-19.395-16.216-25.654-34.505-15.012-60.454 0.6274-68.715 15.329-12.691 22.582-14.122 46.563-14.126 69.696-1e-3 8.3206-3.77 16.622-1.4144 24.953 2.8073 9.921 42.289 31.954 64.811 17.209m513.11-124.77-1.9812 0.8603 1.9812-0.8603m-509.15 21.511h1.9812l1.9812-1.7209c7.0925 10.421-18.965 29.767-37.641 14.628l5.9434 0.8605c-5.9474-5.5344-9.3232-12.402-1.8029-18.066 12.517-9.4295 29.097-4.6696 29.539 4.299m281.32-1.7209c2.4844 13.214 9.6085 26.252 11.708 39.581 4.6299 29.361-6.6704 57.891-29.539 85.185 17.024-2.3646 47.5-4.3754 60.248-10.066 7.0448-3.1449 4.8061-9.1981 5.2064-13.166 1.0737-10.626 1.9039-21.162 1.9039-31.837h1.981l5.9435 21.511c15.253-5.2023 17.678-15.273 17.83-23.232h1.9812c2.7339 15.048-0.4357 28.422-9.9057 43.022 12.022-0.771 30.975-2.8111 37.287-7.8248 6.0563-4.8101 2.3932-13.5 2.3337-18.849-0.2079-18.828-9.5331-38.592-20.061-56.79-6.9696-12.052-10.732-24.953-43.333-24.953 11.568 17.871 19.811 37.356 19.811 55.929l-22.533-41.302-10.607-14.638-30.256-2.5709m77.264 2.5814c6.2325 11.397 19.615 22.184 26.896 33.558 13.624 21.288 17.097 44.426 10.746 66.255 12.031-2.7811 39.573-7.7046 43.527-13.845 5.1945-8.0642-14.363-17.874-3.4234-25.655 6.3891-4.5449 19.896-5.3279 23.068 0.6376 3.261 6.1308-3.9068 14.082-7.7007 19.932 39.785-5.8743 80-36.618 48.201-52.338-17.452-8.6277-48.401-11.055-71.974-15.164-16.903-2.9462-29.628-8.3594-45.566-11.649-7.0488-1.4544-16.17-0.9459-23.773-1.7321m-134.72 12.046-1.9812 0.8605 1.9812-0.8605m-251.6 0.8606 1.9811 0.8604-1.9811-0.8604m437.83 7.744c13.505 3.4228 29.897 4.8538 37.641 11.186l-7.9245-1.7209c5.771 4.3969 7.9265 14.673-11.673 10.158-9.9671-2.2957-20.261-15.039-18.044-19.624z"/>
</svg>
